%TF.GenerationSoftware,KiCad,Pcbnew,9.0.5*%
%TF.CreationDate,2025-11-29T23:46:54+05:30*%
%TF.ProjectId,from scrach,66726f6d-2073-4637-9261-63682e6b6963,rev?*%
%TF.SameCoordinates,Original*%
%TF.FileFunction,Copper,L1,Top*%
%TF.FilePolarity,Positive*%
%FSLAX46Y46*%
G04 Gerber Fmt 4.6, Leading zero omitted, Abs format (unit mm)*
G04 Created by KiCad (PCBNEW 9.0.5) date 2025-11-29 23:46:54*
%MOMM*%
%LPD*%
G01*
G04 APERTURE LIST*
G04 Aperture macros list*
%AMRoundRect*
0 Rectangle with rounded corners*
0 $1 Rounding radius*
0 $2 $3 $4 $5 $6 $7 $8 $9 X,Y pos of 4 corners*
0 Add a 4 corners polygon primitive as box body*
4,1,4,$2,$3,$4,$5,$6,$7,$8,$9,$2,$3,0*
0 Add four circle primitives for the rounded corners*
1,1,$1+$1,$2,$3*
1,1,$1+$1,$4,$5*
1,1,$1+$1,$6,$7*
1,1,$1+$1,$8,$9*
0 Add four rect primitives between the rounded corners*
20,1,$1+$1,$2,$3,$4,$5,0*
20,1,$1+$1,$4,$5,$6,$7,0*
20,1,$1+$1,$6,$7,$8,$9,0*
20,1,$1+$1,$8,$9,$2,$3,0*%
G04 Aperture macros list end*
%ADD10C,0.300000*%
%TA.AperFunction,NonConductor*%
%ADD11C,0.300000*%
%TD*%
%TA.AperFunction,ComponentPad*%
%ADD12R,1.700000X1.700000*%
%TD*%
%TA.AperFunction,ComponentPad*%
%ADD13C,1.700000*%
%TD*%
%TA.AperFunction,ComponentPad*%
%ADD14R,1.800000X1.800000*%
%TD*%
%TA.AperFunction,ComponentPad*%
%ADD15C,1.800000*%
%TD*%
%TA.AperFunction,ComponentPad*%
%ADD16C,2.400000*%
%TD*%
%TA.AperFunction,ComponentPad*%
%ADD17RoundRect,0.250001X-0.949999X-0.949999X0.949999X-0.949999X0.949999X0.949999X-0.949999X0.949999X0*%
%TD*%
%TA.AperFunction,ComponentPad*%
%ADD18R,2.000000X2.000000*%
%TD*%
%TA.AperFunction,ComponentPad*%
%ADD19C,2.000000*%
%TD*%
%TA.AperFunction,ComponentPad*%
%ADD20RoundRect,0.341000X-0.759000X0.759000X-0.759000X-0.759000X0.759000X-0.759000X0.759000X0.759000X0*%
%TD*%
%TA.AperFunction,ComponentPad*%
%ADD21C,2.500000*%
%TD*%
%TA.AperFunction,ComponentPad*%
%ADD22C,2.200000*%
%TD*%
%TA.AperFunction,ComponentPad*%
%ADD23RoundRect,0.250001X0.949999X-0.949999X0.949999X0.949999X-0.949999X0.949999X-0.949999X-0.949999X0*%
%TD*%
%TA.AperFunction,ComponentPad*%
%ADD24R,1.600000X1.600000*%
%TD*%
%TA.AperFunction,ComponentPad*%
%ADD25O,1.600000X1.600000*%
%TD*%
%TA.AperFunction,ComponentPad*%
%ADD26RoundRect,0.250000X-1.050000X-1.050000X1.050000X-1.050000X1.050000X1.050000X-1.050000X1.050000X0*%
%TD*%
%TA.AperFunction,ComponentPad*%
%ADD27C,2.600000*%
%TD*%
%TA.AperFunction,ComponentPad*%
%ADD28RoundRect,0.250000X-0.650000X-0.650000X0.650000X-0.650000X0.650000X0.650000X-0.650000X0.650000X0*%
%TD*%
%TA.AperFunction,ComponentPad*%
%ADD29R,1.050000X1.500000*%
%TD*%
%TA.AperFunction,ComponentPad*%
%ADD30O,1.050000X1.500000*%
%TD*%
%TA.AperFunction,ComponentPad*%
%ADD31R,2.000000X1.905000*%
%TD*%
%TA.AperFunction,ComponentPad*%
%ADD32O,2.000000X1.905000*%
%TD*%
%TA.AperFunction,ComponentPad*%
%ADD33C,1.600000*%
%TD*%
%TA.AperFunction,ComponentPad*%
%ADD34C,1.440000*%
%TD*%
%TA.AperFunction,ComponentPad*%
%ADD35RoundRect,0.250000X0.750000X0.750000X-0.750000X0.750000X-0.750000X-0.750000X0.750000X-0.750000X0*%
%TD*%
%TA.AperFunction,ComponentPad*%
%ADD36R,1.905000X2.000000*%
%TD*%
%TA.AperFunction,ComponentPad*%
%ADD37O,1.905000X2.000000*%
%TD*%
%TA.AperFunction,ComponentPad*%
%ADD38R,1.800000X2.600000*%
%TD*%
%TA.AperFunction,ComponentPad*%
%ADD39O,1.800000X2.600000*%
%TD*%
%TA.AperFunction,Conductor*%
%ADD40C,1.000000*%
%TD*%
%TA.AperFunction,Conductor*%
%ADD41C,1.500000*%
%TD*%
%TA.AperFunction,Conductor*%
%ADD42C,0.750000*%
%TD*%
%TA.AperFunction,Conductor*%
%ADD43C,2.000000*%
%TD*%
%TA.AperFunction,Conductor*%
%ADD44C,0.500000*%
%TD*%
G04 APERTURE END LIST*
D10*
D11*
X98083082Y-99329400D02*
X98297368Y-99400828D01*
X98297368Y-99400828D02*
X98654510Y-99400828D01*
X98654510Y-99400828D02*
X98797368Y-99329400D01*
X98797368Y-99329400D02*
X98868796Y-99257971D01*
X98868796Y-99257971D02*
X98940225Y-99115114D01*
X98940225Y-99115114D02*
X98940225Y-98972257D01*
X98940225Y-98972257D02*
X98868796Y-98829400D01*
X98868796Y-98829400D02*
X98797368Y-98757971D01*
X98797368Y-98757971D02*
X98654510Y-98686542D01*
X98654510Y-98686542D02*
X98368796Y-98615114D01*
X98368796Y-98615114D02*
X98225939Y-98543685D01*
X98225939Y-98543685D02*
X98154510Y-98472257D01*
X98154510Y-98472257D02*
X98083082Y-98329400D01*
X98083082Y-98329400D02*
X98083082Y-98186542D01*
X98083082Y-98186542D02*
X98154510Y-98043685D01*
X98154510Y-98043685D02*
X98225939Y-97972257D01*
X98225939Y-97972257D02*
X98368796Y-97900828D01*
X98368796Y-97900828D02*
X98725939Y-97900828D01*
X98725939Y-97900828D02*
X98940225Y-97972257D01*
X100225939Y-99400828D02*
X100225939Y-98615114D01*
X100225939Y-98615114D02*
X100154510Y-98472257D01*
X100154510Y-98472257D02*
X100011653Y-98400828D01*
X100011653Y-98400828D02*
X99725939Y-98400828D01*
X99725939Y-98400828D02*
X99583081Y-98472257D01*
X100225939Y-99329400D02*
X100083081Y-99400828D01*
X100083081Y-99400828D02*
X99725939Y-99400828D01*
X99725939Y-99400828D02*
X99583081Y-99329400D01*
X99583081Y-99329400D02*
X99511653Y-99186542D01*
X99511653Y-99186542D02*
X99511653Y-99043685D01*
X99511653Y-99043685D02*
X99583081Y-98900828D01*
X99583081Y-98900828D02*
X99725939Y-98829400D01*
X99725939Y-98829400D02*
X100083081Y-98829400D01*
X100083081Y-98829400D02*
X100225939Y-98757971D01*
X100940224Y-99400828D02*
X100940224Y-98400828D01*
X100940224Y-97900828D02*
X100868796Y-97972257D01*
X100868796Y-97972257D02*
X100940224Y-98043685D01*
X100940224Y-98043685D02*
X101011653Y-97972257D01*
X101011653Y-97972257D02*
X100940224Y-97900828D01*
X100940224Y-97900828D02*
X100940224Y-98043685D01*
X101654510Y-99400828D02*
X101654510Y-98400828D01*
X101654510Y-98686542D02*
X101725939Y-98543685D01*
X101725939Y-98543685D02*
X101797368Y-98472257D01*
X101797368Y-98472257D02*
X101940225Y-98400828D01*
X101940225Y-98400828D02*
X102083082Y-98400828D01*
X103225939Y-98400828D02*
X103225939Y-99400828D01*
X102583081Y-98400828D02*
X102583081Y-99186542D01*
X102583081Y-99186542D02*
X102654510Y-99329400D01*
X102654510Y-99329400D02*
X102797367Y-99400828D01*
X102797367Y-99400828D02*
X103011653Y-99400828D01*
X103011653Y-99400828D02*
X103154510Y-99329400D01*
X103154510Y-99329400D02*
X103225939Y-99257971D01*
X104583082Y-99400828D02*
X104583082Y-97900828D01*
X104583082Y-99329400D02*
X104440224Y-99400828D01*
X104440224Y-99400828D02*
X104154510Y-99400828D01*
X104154510Y-99400828D02*
X104011653Y-99329400D01*
X104011653Y-99329400D02*
X103940224Y-99257971D01*
X103940224Y-99257971D02*
X103868796Y-99115114D01*
X103868796Y-99115114D02*
X103868796Y-98686542D01*
X103868796Y-98686542D02*
X103940224Y-98543685D01*
X103940224Y-98543685D02*
X104011653Y-98472257D01*
X104011653Y-98472257D02*
X104154510Y-98400828D01*
X104154510Y-98400828D02*
X104440224Y-98400828D01*
X104440224Y-98400828D02*
X104583082Y-98472257D01*
X105297367Y-99400828D02*
X105297367Y-98400828D01*
X105297367Y-98686542D02*
X105368796Y-98543685D01*
X105368796Y-98543685D02*
X105440225Y-98472257D01*
X105440225Y-98472257D02*
X105583082Y-98400828D01*
X105583082Y-98400828D02*
X105725939Y-98400828D01*
X106868796Y-99400828D02*
X106868796Y-98615114D01*
X106868796Y-98615114D02*
X106797367Y-98472257D01*
X106797367Y-98472257D02*
X106654510Y-98400828D01*
X106654510Y-98400828D02*
X106368796Y-98400828D01*
X106368796Y-98400828D02*
X106225938Y-98472257D01*
X106868796Y-99329400D02*
X106725938Y-99400828D01*
X106725938Y-99400828D02*
X106368796Y-99400828D01*
X106368796Y-99400828D02*
X106225938Y-99329400D01*
X106225938Y-99329400D02*
X106154510Y-99186542D01*
X106154510Y-99186542D02*
X106154510Y-99043685D01*
X106154510Y-99043685D02*
X106225938Y-98900828D01*
X106225938Y-98900828D02*
X106368796Y-98829400D01*
X106368796Y-98829400D02*
X106725938Y-98829400D01*
X106725938Y-98829400D02*
X106868796Y-98757971D01*
X109511653Y-97972257D02*
X109368796Y-97900828D01*
X109368796Y-97900828D02*
X109154510Y-97900828D01*
X109154510Y-97900828D02*
X108940224Y-97972257D01*
X108940224Y-97972257D02*
X108797367Y-98115114D01*
X108797367Y-98115114D02*
X108725938Y-98257971D01*
X108725938Y-98257971D02*
X108654510Y-98543685D01*
X108654510Y-98543685D02*
X108654510Y-98757971D01*
X108654510Y-98757971D02*
X108725938Y-99043685D01*
X108725938Y-99043685D02*
X108797367Y-99186542D01*
X108797367Y-99186542D02*
X108940224Y-99329400D01*
X108940224Y-99329400D02*
X109154510Y-99400828D01*
X109154510Y-99400828D02*
X109297367Y-99400828D01*
X109297367Y-99400828D02*
X109511653Y-99329400D01*
X109511653Y-99329400D02*
X109583081Y-99257971D01*
X109583081Y-99257971D02*
X109583081Y-98757971D01*
X109583081Y-98757971D02*
X109297367Y-98757971D01*
X110868796Y-98400828D02*
X110868796Y-99400828D01*
X110225938Y-98400828D02*
X110225938Y-99186542D01*
X110225938Y-99186542D02*
X110297367Y-99329400D01*
X110297367Y-99329400D02*
X110440224Y-99400828D01*
X110440224Y-99400828D02*
X110654510Y-99400828D01*
X110654510Y-99400828D02*
X110797367Y-99329400D01*
X110797367Y-99329400D02*
X110868796Y-99257971D01*
X112225939Y-99400828D02*
X112225939Y-97900828D01*
X112225939Y-99329400D02*
X112083081Y-99400828D01*
X112083081Y-99400828D02*
X111797367Y-99400828D01*
X111797367Y-99400828D02*
X111654510Y-99329400D01*
X111654510Y-99329400D02*
X111583081Y-99257971D01*
X111583081Y-99257971D02*
X111511653Y-99115114D01*
X111511653Y-99115114D02*
X111511653Y-98686542D01*
X111511653Y-98686542D02*
X111583081Y-98543685D01*
X111583081Y-98543685D02*
X111654510Y-98472257D01*
X111654510Y-98472257D02*
X111797367Y-98400828D01*
X111797367Y-98400828D02*
X112083081Y-98400828D01*
X112083081Y-98400828D02*
X112225939Y-98472257D01*
X113583082Y-98400828D02*
X113583082Y-99400828D01*
X112940224Y-98400828D02*
X112940224Y-99186542D01*
X112940224Y-99186542D02*
X113011653Y-99329400D01*
X113011653Y-99329400D02*
X113154510Y-99400828D01*
X113154510Y-99400828D02*
X113368796Y-99400828D01*
X113368796Y-99400828D02*
X113511653Y-99329400D01*
X113511653Y-99329400D02*
X113583082Y-99257971D01*
X114297367Y-99400828D02*
X114297367Y-98400828D01*
X114297367Y-98686542D02*
X114368796Y-98543685D01*
X114368796Y-98543685D02*
X114440225Y-98472257D01*
X114440225Y-98472257D02*
X114583082Y-98400828D01*
X114583082Y-98400828D02*
X114725939Y-98400828D01*
D12*
%TO.P,J9,1,Pin_1*%
%TO.N,1*%
X123377688Y-90952848D03*
D13*
%TO.P,J9,2,Pin_2*%
%TO.N,2*%
X120837688Y-90952848D03*
%TO.P,J9,3,Pin_3*%
%TO.N,3*%
X118297688Y-90952848D03*
%TO.P,J9,4,Pin_4*%
%TO.N,GND*%
X115757688Y-90952848D03*
%TO.P,J9,5,Pin_5*%
%TO.N,RS*%
X113217688Y-90952848D03*
%TO.P,J9,6,Pin_6*%
%TO.N,EN*%
X110677688Y-90952848D03*
%TO.P,J9,7,Pin_7*%
%TO.N,D4*%
X108137688Y-90952848D03*
%TO.P,J9,8,Pin_8*%
%TO.N,D5*%
X105597688Y-90952848D03*
%TO.P,J9,9,Pin_9*%
%TO.N,D6*%
X103057688Y-90952848D03*
%TO.P,J9,10,Pin_10*%
%TO.N,D7*%
X100517688Y-90952848D03*
%TO.P,J9,11,Pin_11*%
%TO.N,D8*%
X97977688Y-90952848D03*
%TO.P,J9,12,Pin_12*%
%TO.N,D9*%
X95437688Y-90952848D03*
%TO.P,J9,13,Pin_13*%
%TO.N,D10*%
X92897688Y-90952848D03*
%TO.P,J9,14,Pin_14*%
%TO.N,D11*%
X90357688Y-90952848D03*
%TO.P,J9,15,Pin_15*%
%TO.N,15*%
X87817688Y-90952848D03*
%TD*%
D14*
%TO.P,D1,1,K*%
%TO.N,Net-(D1-K)*%
X50000000Y-103870000D03*
D15*
%TO.P,D1,2,A*%
%TO.N,D8*%
X50000000Y-101330000D03*
%TD*%
D12*
%TO.P,J6,1,Pin_1*%
%TO.N,Vinput*%
X123900000Y-130325000D03*
D13*
%TO.P,J6,2,Pin_2*%
%TO.N,5V*%
X123900000Y-132865000D03*
%TD*%
D16*
%TO.P,R1,1*%
%TO.N,Net-(DS2-LED(+))*%
X63820000Y-86500000D03*
%TO.P,R1,2*%
%TO.N,5V*%
X48580000Y-86500000D03*
%TD*%
D17*
%TO.P,J3,1,Pin_1*%
%TO.N,Net-(J3-Pin_1)*%
X49000000Y-143500000D03*
D16*
%TO.P,J3,2,Pin_2*%
%TO.N,Net-(J3-Pin_2)*%
X54080000Y-143500000D03*
%TD*%
%TO.P,R8,1*%
%TO.N,3V3*%
X85036431Y-118348634D03*
%TO.P,R8,2*%
%TO.N,A3*%
X85036431Y-133588634D03*
%TD*%
%TO.P,R2,1*%
%TO.N,Net-(D1-K)*%
X65644211Y-113365360D03*
%TO.P,R2,2*%
%TO.N,Net-(Q4-B)*%
X65644211Y-128605360D03*
%TD*%
%TO.P,R6,1*%
%TO.N,3V3*%
X94486431Y-118348634D03*
%TO.P,R6,2*%
%TO.N,A1*%
X94486431Y-133588634D03*
%TD*%
%TO.P,R4,1*%
%TO.N,D10*%
X75821184Y-113369845D03*
%TO.P,R4,2*%
%TO.N,Net-(Q1-B)*%
X75821184Y-128609845D03*
%TD*%
D18*
%TO.P,BZ1,1,+*%
%TO.N,Net-(BZ1-+)*%
X105400000Y-127400000D03*
D19*
%TO.P,BZ1,2,-*%
%TO.N,GND*%
X113000000Y-127400000D03*
%TD*%
D12*
%TO.P,J10,1,Pin_1*%
%TO.N,Net-(J10-Pin_1)*%
X98840000Y-147500000D03*
D13*
%TO.P,J10,2,Pin_2*%
%TO.N,Net-(J10-Pin_2)*%
X96300000Y-147500000D03*
%TO.P,J10,3,Pin_3*%
%TO.N,Net-(J10-Pin_3)*%
X93760000Y-147500000D03*
%TO.P,J10,4,Pin_4*%
%TO.N,Net-(J10-Pin_4)*%
X91220000Y-147500000D03*
%TO.P,J10,5,Pin_5*%
%TO.N,Net-(J10-Pin_5)*%
X88680000Y-147500000D03*
%TD*%
D20*
%TO.P,K1,1*%
%TO.N,GND*%
X55595000Y-116215000D03*
D21*
%TO.P,K1,2*%
%TO.N,Net-(J3-Pin_2)*%
X47995000Y-126415000D03*
%TO.P,K1,3*%
%TO.N,Net-(J3-Pin_1)*%
X47995000Y-134115000D03*
D22*
%TO.P,K1,5*%
%TO.N,Net-(D4-K)*%
X47995000Y-116215000D03*
%TD*%
D23*
%TO.P,J2,1,Pin_1*%
%TO.N,Vinput*%
X125300000Y-146280000D03*
D16*
%TO.P,J2,2,Pin_2*%
%TO.N,GND*%
X125300000Y-141200000D03*
%TD*%
%TO.P,R3,1*%
%TO.N,Net-(D2-K)*%
X70700000Y-113380000D03*
%TO.P,R3,2*%
%TO.N,Net-(Q2-B)*%
X70700000Y-128620000D03*
%TD*%
D24*
%TO.P,A1,1,D1/TX*%
%TO.N,1*%
X123500000Y-94360000D03*
D25*
%TO.P,A1,2,D0/RX*%
%TO.N,2*%
X120960000Y-94360000D03*
%TO.P,A1,3,~{RESET}*%
%TO.N,3*%
X118420000Y-94360000D03*
%TO.P,A1,4,GND*%
%TO.N,GND*%
X115880000Y-94360000D03*
%TO.P,A1,5,D2*%
%TO.N,RS*%
X113340000Y-94360000D03*
%TO.P,A1,6,D3*%
%TO.N,EN*%
X110800000Y-94360000D03*
%TO.P,A1,7,D4*%
%TO.N,D4*%
X108260000Y-94360000D03*
%TO.P,A1,8,D5*%
%TO.N,D5*%
X105720000Y-94360000D03*
%TO.P,A1,9,D6*%
%TO.N,D6*%
X103180000Y-94360000D03*
%TO.P,A1,10,D7*%
%TO.N,D7*%
X100640000Y-94360000D03*
%TO.P,A1,11,D8*%
%TO.N,D8*%
X98100000Y-94360000D03*
%TO.P,A1,12,D9*%
%TO.N,D9*%
X95560000Y-94360000D03*
%TO.P,A1,13,D10*%
%TO.N,D10*%
X93020000Y-94360000D03*
%TO.P,A1,14,D11*%
%TO.N,D11*%
X90480000Y-94360000D03*
%TO.P,A1,15,D12*%
%TO.N,15*%
X87940000Y-94360000D03*
%TO.P,A1,16,D13*%
%TO.N,16*%
X87940000Y-109600000D03*
%TO.P,A1,17,3V3*%
%TO.N,3V3*%
X90480000Y-109600000D03*
%TO.P,A1,18,AREF*%
%TO.N,18*%
X93020000Y-109600000D03*
%TO.P,A1,19,A0*%
%TO.N,A0*%
X95560000Y-109600000D03*
%TO.P,A1,20,A1*%
%TO.N,A1*%
X98100000Y-109600000D03*
%TO.P,A1,21,A2*%
%TO.N,A2*%
X100640000Y-109600000D03*
%TO.P,A1,22,A3*%
%TO.N,A3*%
X103180000Y-109600000D03*
%TO.P,A1,23,A4*%
%TO.N,A4*%
X105720000Y-109600000D03*
%TO.P,A1,24,A5*%
%TO.N,A5*%
X108260000Y-109600000D03*
%TO.P,A1,25,A6*%
%TO.N,A6*%
X110800000Y-109600000D03*
%TO.P,A1,26,A7*%
%TO.N,A7*%
X113340000Y-109600000D03*
%TO.P,A1,27,+5V*%
%TO.N,+5Vo*%
X115880000Y-109600000D03*
%TO.P,A1,28,~{RESET}*%
%TO.N,28*%
X118420000Y-109600000D03*
%TO.P,A1,29,GND*%
%TO.N,GND*%
X120960000Y-109600000D03*
%TO.P,A1,30,VIN*%
%TO.N,5V*%
X123500000Y-109600000D03*
%TD*%
D17*
%TO.P,J5,1,Pin_1*%
%TO.N,Net-(BZ1-+)*%
X106260000Y-143442500D03*
D16*
%TO.P,J5,2,Pin_2*%
%TO.N,GND*%
X111340000Y-143442500D03*
%TD*%
%TO.P,R5,1*%
%TO.N,3V3*%
X99136431Y-118328634D03*
%TO.P,R5,2*%
%TO.N,A0*%
X99136431Y-133568634D03*
%TD*%
D12*
%TO.P,J7,1,Pin_1*%
%TO.N,16*%
X87834526Y-112898151D03*
D13*
%TO.P,J7,2,Pin_2*%
%TO.N,3V3*%
X90374526Y-112898151D03*
%TO.P,J7,3,Pin_3*%
%TO.N,18*%
X92914526Y-112898151D03*
%TO.P,J7,4,Pin_4*%
%TO.N,A0*%
X95454526Y-112898151D03*
%TO.P,J7,5,Pin_5*%
%TO.N,A1*%
X97994526Y-112898151D03*
%TO.P,J7,6,Pin_6*%
%TO.N,A2*%
X100534526Y-112898151D03*
%TO.P,J7,7,Pin_7*%
%TO.N,A3*%
X103074526Y-112898151D03*
%TO.P,J7,8,Pin_8*%
%TO.N,A4*%
X105614526Y-112898151D03*
%TO.P,J7,9,Pin_9*%
%TO.N,A5*%
X108154526Y-112898151D03*
%TO.P,J7,10,Pin_10*%
%TO.N,A6*%
X110694526Y-112898151D03*
%TO.P,J7,11,Pin_11*%
%TO.N,A7*%
X113234526Y-112898151D03*
%TO.P,J7,12,Pin_12*%
%TO.N,+5Vo*%
X115774526Y-112898151D03*
%TO.P,J7,13,Pin_13*%
%TO.N,28*%
X118314526Y-112898151D03*
%TO.P,J7,14,Pin_14*%
%TO.N,GND*%
X120854526Y-112898151D03*
%TO.P,J7,15,Pin_15*%
%TO.N,5V*%
X123394526Y-112898151D03*
%TD*%
D16*
%TO.P,R7,1*%
%TO.N,3V3*%
X89736431Y-118348634D03*
%TO.P,R7,2*%
%TO.N,A2*%
X89736431Y-133588634D03*
%TD*%
D26*
%TO.P,J1,1,Pin_1*%
%TO.N,5V*%
X73140000Y-144200000D03*
D27*
%TO.P,J1,2,Pin_2*%
%TO.N,D11*%
X78220000Y-144200000D03*
%TO.P,J1,3,Pin_3*%
%TO.N,GND*%
X83300000Y-144200000D03*
%TD*%
D14*
%TO.P,D2,1,K*%
%TO.N,Net-(D2-K)*%
X49900000Y-97270000D03*
D15*
%TO.P,D2,2,A*%
%TO.N,D9*%
X49900000Y-94730000D03*
%TD*%
D28*
%TO.P,D4,1,K*%
%TO.N,Net-(D4-K)*%
X47020000Y-112000000D03*
D15*
%TO.P,D4,2,A*%
%TO.N,GND*%
X57180000Y-112000000D03*
%TD*%
D12*
%TO.P,J8,1,Pin_1*%
%TO.N,GND*%
X98808460Y-141197884D03*
D13*
%TO.P,J8,2,Pin_2*%
%TO.N,Net-(J10-Pin_1)*%
X98808460Y-143737884D03*
%TO.P,J8,3,Pin_3*%
%TO.N,A0*%
X96268460Y-141197884D03*
%TO.P,J8,4,Pin_4*%
%TO.N,Net-(J10-Pin_2)*%
X96268460Y-143737884D03*
%TO.P,J8,5,Pin_5*%
%TO.N,A1*%
X93728460Y-141197884D03*
%TO.P,J8,6,Pin_6*%
%TO.N,Net-(J10-Pin_3)*%
X93728460Y-143737884D03*
%TO.P,J8,7,Pin_7*%
%TO.N,A2*%
X91188460Y-141197884D03*
%TO.P,J8,8,Pin_8*%
%TO.N,Net-(J10-Pin_4)*%
X91188460Y-143737884D03*
%TO.P,J8,9,Pin_9*%
%TO.N,A3*%
X88648460Y-141197884D03*
%TO.P,J8,10,Pin_10*%
%TO.N,Net-(J10-Pin_5)*%
X88648460Y-143737884D03*
%TD*%
D29*
%TO.P,Q2,1,E*%
%TO.N,Net-(J4-Pin_1)*%
X71304211Y-134985360D03*
D30*
%TO.P,Q2,2,B*%
%TO.N,Net-(Q2-B)*%
X72574211Y-134985360D03*
%TO.P,Q2,3,C*%
%TO.N,5V*%
X73844211Y-134985360D03*
%TD*%
D31*
%TO.P,U1,1,VI*%
%TO.N,Vinput*%
X127757500Y-129240000D03*
D32*
%TO.P,U1,2,GND*%
%TO.N,GND*%
X127757500Y-131780000D03*
%TO.P,U1,3,VO*%
%TO.N,5V*%
X127757500Y-134320000D03*
%TD*%
D17*
%TO.P,J4,1,Pin_1*%
%TO.N,Net-(J4-Pin_1)*%
X61100000Y-143500000D03*
D16*
%TO.P,J4,2,Pin_2*%
%TO.N,GND*%
X66180000Y-143500000D03*
%TD*%
D33*
%TO.P,C5,1*%
%TO.N,5V*%
X117300000Y-146900000D03*
%TO.P,C5,2*%
%TO.N,GND*%
X117300000Y-141900000D03*
%TD*%
D34*
%TO.P,RV1,1,1*%
%TO.N,5V*%
X72100000Y-90300000D03*
%TO.P,RV1,2,2*%
%TO.N,Net-(DS2-VO)*%
X74640000Y-87760000D03*
%TO.P,RV1,3,3*%
%TO.N,GND*%
X72100000Y-85220000D03*
%TD*%
D35*
%TO.P,C4,1*%
%TO.N,5V*%
X122567677Y-122600000D03*
D19*
%TO.P,C4,2*%
%TO.N,GND*%
X117567677Y-122600000D03*
%TD*%
D36*
%TO.P,Q4,1,B*%
%TO.N,Net-(Q4-B)*%
X60960000Y-135550000D03*
D37*
%TO.P,Q4,2,C*%
%TO.N,5V*%
X63500000Y-135550000D03*
%TO.P,Q4,3,E*%
%TO.N,Net-(D4-K)*%
X66040000Y-135550000D03*
%TD*%
D29*
%TO.P,Q1,1,E*%
%TO.N,Net-(BZ1-+)*%
X76804211Y-134985360D03*
D30*
%TO.P,Q1,2,B*%
%TO.N,Net-(Q1-B)*%
X78074211Y-134985360D03*
%TO.P,Q1,3,C*%
%TO.N,5V*%
X79344211Y-134985360D03*
%TD*%
D38*
%TO.P,DS2,1,VSS*%
%TO.N,GND*%
X122620000Y-85080000D03*
D39*
%TO.P,DS2,2,VDD*%
%TO.N,5V*%
X120080000Y-85080000D03*
%TO.P,DS2,3,VO*%
%TO.N,Net-(DS2-VO)*%
X117540000Y-85080000D03*
%TO.P,DS2,4,RS*%
%TO.N,RS*%
X115000000Y-85080000D03*
%TO.P,DS2,5,R/W*%
%TO.N,GND*%
X112460000Y-85080000D03*
%TO.P,DS2,6,E*%
%TO.N,EN*%
X109920000Y-85080000D03*
%TO.P,DS2,7,D0*%
%TO.N,unconnected-(DS2-D0-Pad7)*%
X107380000Y-85080000D03*
%TO.P,DS2,8,D1*%
%TO.N,unconnected-(DS2-D1-Pad8)*%
X104840000Y-85080000D03*
%TO.P,DS2,9,D2*%
%TO.N,unconnected-(DS2-D2-Pad9)*%
X102300000Y-85080000D03*
%TO.P,DS2,10,D3*%
%TO.N,unconnected-(DS2-D3-Pad10)*%
X99760000Y-85080000D03*
%TO.P,DS2,11,D4*%
%TO.N,D4*%
X97220000Y-85080000D03*
%TO.P,DS2,12,D5*%
%TO.N,D5*%
X94680000Y-85080000D03*
%TO.P,DS2,13,D6*%
%TO.N,D6*%
X92140000Y-85080000D03*
%TO.P,DS2,14,D7*%
%TO.N,D7*%
X89600000Y-85080000D03*
%TO.P,DS2,15,LED(+)*%
%TO.N,Net-(DS2-LED(+))*%
X87060000Y-85080000D03*
%TO.P,DS2,16,LED(-)*%
%TO.N,GND*%
X84520000Y-85080000D03*
%TD*%
D40*
%TO.N,D9*%
X95437688Y-94237688D02*
X95560000Y-94360000D01*
X95437688Y-90952848D02*
X95437688Y-94237688D01*
D41*
%TO.N,GND*%
X122620000Y-85557709D02*
X119025861Y-89151848D01*
X117300000Y-141900000D02*
X117300000Y-135400000D01*
X70380000Y-147700000D02*
X66180000Y-143500000D01*
X83300000Y-144200000D02*
X79800000Y-147700000D01*
X113100000Y-131200000D02*
X113100000Y-127067677D01*
X117551689Y-89151848D02*
X115757688Y-90945849D01*
D40*
X120960000Y-112792677D02*
X120854526Y-112898151D01*
D41*
X79800000Y-147700000D02*
X70380000Y-147700000D01*
X113100000Y-127067677D02*
X117567677Y-122600000D01*
X117300000Y-135400000D02*
X113100000Y-131200000D01*
X115757688Y-90945849D02*
X115757688Y-90952848D01*
X122620000Y-85080000D02*
X122620000Y-85557709D01*
X119025861Y-89151848D02*
X117551689Y-89151848D01*
D40*
X120854526Y-112898151D02*
X120854526Y-109705474D01*
X115757688Y-94237688D02*
X115880000Y-94360000D01*
X120854526Y-109705474D02*
X120960000Y-109600000D01*
%TO.N,A4*%
X105720000Y-109600000D02*
X105720000Y-112792677D01*
X105720000Y-112792677D02*
X105614526Y-112898151D01*
%TO.N,A6*%
X110800000Y-109600000D02*
X110800000Y-112792677D01*
X110800000Y-112792677D02*
X110694526Y-112898151D01*
%TO.N,A3*%
X88648460Y-137200663D02*
X85036431Y-133588634D01*
X88648460Y-141197884D02*
X88648460Y-137200663D01*
X103180000Y-109600000D02*
X103180000Y-112792677D01*
X103180000Y-112792677D02*
X103074526Y-112898151D01*
%TO.N,2*%
X120837688Y-90952848D02*
X120837688Y-94237688D01*
X120837688Y-94237688D02*
X120960000Y-94360000D01*
%TO.N,28*%
X118420000Y-109600000D02*
X118420000Y-112792677D01*
X118420000Y-112792677D02*
X118314526Y-112898151D01*
D42*
%TO.N,D6*%
X99904840Y-87800000D02*
X103057688Y-90952848D01*
X94860000Y-87800000D02*
X99904840Y-87800000D01*
D40*
X103057688Y-94237688D02*
X103180000Y-94360000D01*
X103057688Y-90952848D02*
X103057688Y-94237688D01*
D42*
X92140000Y-85080000D02*
X94860000Y-87800000D01*
%TO.N,D7*%
X98664840Y-89100000D02*
X100517688Y-90952848D01*
X93620000Y-89100000D02*
X98664840Y-89100000D01*
X89600000Y-85080000D02*
X93620000Y-89100000D01*
D40*
X100517688Y-94237688D02*
X100640000Y-94360000D01*
X100517688Y-90952848D02*
X100517688Y-94237688D01*
D41*
%TO.N,3V3*%
X99116431Y-118348634D02*
X99136431Y-118328634D01*
D40*
X90480000Y-112792677D02*
X90374526Y-112898151D01*
X90480000Y-109600000D02*
X90480000Y-112792677D01*
%TO.N,D5*%
X105597688Y-90952848D02*
X105597688Y-94237688D01*
X105597688Y-94237688D02*
X105720000Y-94360000D01*
%TO.N,D8*%
X97977688Y-90952848D02*
X97977688Y-94237688D01*
X97977688Y-94237688D02*
X98100000Y-94360000D01*
%TO.N,A0*%
X95560000Y-109600000D02*
X95560000Y-112792677D01*
X96268460Y-136436605D02*
X99136431Y-133568634D01*
X95560000Y-112792677D02*
X95454526Y-112898151D01*
X96268460Y-141197884D02*
X96268460Y-136436605D01*
%TO.N,D11*%
X90357688Y-94237688D02*
X90480000Y-94360000D01*
X90357688Y-90952848D02*
X90357688Y-94237688D01*
%TO.N,RS*%
X113217688Y-90952848D02*
X113217688Y-94237688D01*
X113217688Y-94237688D02*
X113340000Y-94360000D01*
%TO.N,A1*%
X93728460Y-141197884D02*
X93728460Y-134346605D01*
X98100000Y-112792677D02*
X97994526Y-112898151D01*
X98100000Y-109600000D02*
X98100000Y-112792677D01*
X97235431Y-130839634D02*
X97235431Y-113657246D01*
X97235431Y-113657246D02*
X97994526Y-112898151D01*
X93728460Y-134346605D02*
X94486431Y-133588634D01*
X94486431Y-133588634D02*
X97235431Y-130839634D01*
%TO.N,A2*%
X100640000Y-109600000D02*
X100640000Y-112792677D01*
X82500000Y-126352203D02*
X82500000Y-108500000D01*
X98100000Y-105300000D02*
X100640000Y-107840000D01*
X91188460Y-141197884D02*
X91188460Y-135040663D01*
X85700000Y-105300000D02*
X98100000Y-105300000D01*
X89736431Y-133588634D02*
X82500000Y-126352203D01*
X91188460Y-135040663D02*
X89736431Y-133588634D01*
X100640000Y-107840000D02*
X100640000Y-109600000D01*
X100640000Y-112792677D02*
X100534526Y-112898151D01*
X82500000Y-108500000D02*
X85700000Y-105300000D01*
%TO.N,A7*%
X113340000Y-112792677D02*
X113234526Y-112898151D01*
X113340000Y-109600000D02*
X113340000Y-112792677D01*
%TO.N,D4*%
X108137688Y-90952848D02*
X108137688Y-94237688D01*
X108137688Y-94237688D02*
X108260000Y-94360000D01*
D41*
%TO.N,D10*%
X75821184Y-111672789D02*
X84593973Y-102900000D01*
X93020000Y-101380000D02*
X93020000Y-94360000D01*
X84593973Y-102900000D02*
X91600000Y-102900000D01*
X91600000Y-102800000D02*
X93020000Y-101380000D01*
D40*
X92897688Y-94237688D02*
X93020000Y-94360000D01*
D41*
X75821184Y-113369845D02*
X75821184Y-111672789D01*
X91600000Y-102900000D02*
X91600000Y-102800000D01*
D40*
X92897688Y-90952848D02*
X92897688Y-94237688D01*
%TO.N,A5*%
X108260000Y-112792677D02*
X108154526Y-112898151D01*
X108260000Y-109600000D02*
X108260000Y-112792677D01*
%TO.N,+5Vo*%
X115880000Y-109600000D02*
X115880000Y-112792677D01*
X115880000Y-112792677D02*
X115774526Y-112898151D01*
%TO.N,EN*%
X110677688Y-94237688D02*
X110800000Y-94360000D01*
X110677688Y-90952848D02*
X110677688Y-94237688D01*
%TO.N,5V*%
X73844211Y-143495789D02*
X73140000Y-144200000D01*
X73844211Y-134985360D02*
X73844211Y-143495789D01*
X123500000Y-112792677D02*
X123394526Y-112898151D01*
X123500000Y-109600000D02*
X123500000Y-112792677D01*
D41*
X122697919Y-132865000D02*
X123900000Y-132865000D01*
D43*
X72100000Y-90300000D02*
X52380000Y-90300000D01*
D41*
X122567677Y-122600000D02*
X122567677Y-122632323D01*
X117300000Y-146900000D02*
X117300000Y-145768630D01*
X125355000Y-137713630D02*
X125355000Y-134320000D01*
D43*
X52380000Y-90300000D02*
X48580000Y-86500000D01*
X127757500Y-134320000D02*
X125355000Y-134320000D01*
D41*
X119500000Y-125700000D02*
X119500000Y-129667081D01*
D40*
X73844211Y-134985360D02*
X73844211Y-92044211D01*
D41*
X117300000Y-145768630D02*
X125355000Y-137713630D01*
X122567677Y-122600000D02*
X123500000Y-121667677D01*
D43*
X125355000Y-134320000D02*
X123900000Y-132865000D01*
D41*
X119500000Y-129667081D02*
X122697919Y-132865000D01*
X122567677Y-122632323D02*
X119500000Y-125700000D01*
D40*
X73844211Y-92044211D02*
X72100000Y-90300000D01*
D41*
X123500000Y-121667677D02*
X123500000Y-109600000D01*
D40*
%TO.N,16*%
X87940000Y-109600000D02*
X87940000Y-112792677D01*
X87940000Y-112792677D02*
X87834526Y-112898151D01*
%TO.N,3*%
X118297688Y-94237688D02*
X118420000Y-94360000D01*
X118297688Y-90952848D02*
X118297688Y-94237688D01*
%TO.N,1*%
X123500000Y-94360000D02*
X123500000Y-91075160D01*
X123500000Y-91075160D02*
X123377688Y-90952848D01*
%TO.N,15*%
X87817688Y-94237688D02*
X87940000Y-94360000D01*
X87817688Y-90952848D02*
X87817688Y-94237688D01*
%TO.N,18*%
X93020000Y-109600000D02*
X93020000Y-112792677D01*
X93020000Y-112792677D02*
X92914526Y-112898151D01*
%TO.N,Net-(BZ1-+)*%
X100402500Y-149300000D02*
X106260000Y-143442500D01*
X106260000Y-131960000D02*
X105400000Y-131100000D01*
X76804211Y-134985360D02*
X76804211Y-136000000D01*
X87200000Y-149300000D02*
X86100000Y-148200000D01*
X106260000Y-143442500D02*
X106260000Y-131960000D01*
X105400000Y-131100000D02*
X105400000Y-127400000D01*
X80400000Y-136800000D02*
X77604211Y-136800000D01*
X86100000Y-148200000D02*
X86100000Y-142500000D01*
X100402500Y-149300000D02*
X87200000Y-149300000D01*
X77604211Y-136800000D02*
X76804211Y-136000000D01*
X86100000Y-142500000D02*
X80400000Y-136800000D01*
D41*
%TO.N,Net-(D1-K)*%
X65644211Y-113365360D02*
X56148851Y-103870000D01*
X56148851Y-103870000D02*
X50000000Y-103870000D01*
%TO.N,Net-(D2-K)*%
X70700000Y-113380000D02*
X54590000Y-97270000D01*
X54590000Y-97270000D02*
X49900000Y-97270000D01*
D40*
%TO.N,Net-(DS2-VO)*%
X74640000Y-87760000D02*
X79900000Y-82500000D01*
X117540000Y-83580000D02*
X117540000Y-85080000D01*
X116460000Y-82500000D02*
X117540000Y-83580000D01*
X79900000Y-82500000D02*
X116460000Y-82500000D01*
%TO.N,Net-(DS2-LED(+))*%
X87060000Y-86580000D02*
X83928598Y-89711402D01*
X87060000Y-85080000D02*
X87060000Y-86580000D01*
X70309598Y-86500000D02*
X63820000Y-86500000D01*
X83928598Y-89711402D02*
X74011402Y-89711402D01*
X74011402Y-89711402D02*
X71800000Y-87500000D01*
X71309598Y-87500000D02*
X70309598Y-86500000D01*
X71800000Y-87500000D02*
X71309598Y-87500000D01*
D43*
%TO.N,Vinput*%
X131099000Y-143001000D02*
X131099000Y-131600000D01*
X123900000Y-130325000D02*
X124985000Y-129240000D01*
X124985000Y-129240000D02*
X127757500Y-129240000D01*
X125300000Y-146280000D02*
X127820000Y-146280000D01*
X127820000Y-146280000D02*
X131099000Y-143001000D01*
X128739000Y-129240000D02*
X127757500Y-129240000D01*
X131099000Y-131600000D02*
X128739000Y-129240000D01*
D44*
%TO.N,Net-(J4-Pin_1)*%
X61100000Y-143500000D02*
X60700000Y-143500000D01*
D40*
X71304211Y-134985360D02*
X70414640Y-134985360D01*
X70414640Y-134985360D02*
X61900000Y-143500000D01*
D42*
%TO.N,Net-(Q1-B)*%
X78074211Y-130862872D02*
X78074211Y-134985360D01*
X75821184Y-128609845D02*
X78074211Y-130862872D01*
%TO.N,Net-(Q2-B)*%
X70700000Y-128620000D02*
X72574211Y-130494211D01*
X72574211Y-130494211D02*
X72574211Y-134985360D01*
X70644211Y-128675789D02*
X70700000Y-128620000D01*
D40*
%TO.N,Net-(D4-K)*%
X47020000Y-115240000D02*
X47995000Y-116215000D01*
X48015000Y-116215000D02*
X57300000Y-125500000D01*
X47020000Y-112000000D02*
X47020000Y-115240000D01*
X57300000Y-136100000D02*
X59700000Y-138500000D01*
X64100000Y-138500000D02*
X66040000Y-136560000D01*
X59700000Y-138500000D02*
X64100000Y-138500000D01*
X66040000Y-136560000D02*
X66040000Y-135550000D01*
X47995000Y-116215000D02*
X48015000Y-116215000D01*
X57300000Y-125500000D02*
X57300000Y-136100000D01*
%TO.N,Net-(J10-Pin_5)*%
X88648460Y-147537884D02*
X88648460Y-143737884D01*
%TO.N,Net-(J10-Pin_3)*%
X93728460Y-147537884D02*
X93728460Y-143737884D01*
%TO.N,Net-(J10-Pin_2)*%
X96268460Y-147537884D02*
X96268460Y-143737884D01*
%TO.N,Net-(J10-Pin_1)*%
X98808460Y-143737884D02*
X98808460Y-147537884D01*
%TO.N,Net-(J10-Pin_4)*%
X91188460Y-147537884D02*
X91188460Y-143737884D01*
D42*
%TO.N,Net-(Q4-B)*%
X60960000Y-133289571D02*
X60960000Y-135550000D01*
X65644211Y-128605360D02*
X60960000Y-133289571D01*
%TD*%
M02*
