%TF.GenerationSoftware,KiCad,Pcbnew,9.0.5*%
%TF.CreationDate,2025-11-29T23:17:54+05:30*%
%TF.ProjectId,from scrach,66726f6d-2073-4637-9261-63682e6b6963,rev?*%
%TF.SameCoordinates,Original*%
%TF.FileFunction,Legend,Top*%
%TF.FilePolarity,Positive*%
%FSLAX46Y46*%
G04 Gerber Fmt 4.6, Leading zero omitted, Abs format (unit mm)*
G04 Created by KiCad (PCBNEW 9.0.5) date 2025-11-29 23:17:54*
%MOMM*%
%LPD*%
G01*
G04 APERTURE LIST*
%ADD10C,0.150000*%
%ADD11C,0.120000*%
G04 APERTURE END LIST*
D10*
X125212507Y-91286181D02*
X125926792Y-91286181D01*
X125926792Y-91286181D02*
X126069649Y-91333800D01*
X126069649Y-91333800D02*
X126164888Y-91429038D01*
X126164888Y-91429038D02*
X126212507Y-91571895D01*
X126212507Y-91571895D02*
X126212507Y-91667133D01*
X126212507Y-90762371D02*
X126212507Y-90571895D01*
X126212507Y-90571895D02*
X126164888Y-90476657D01*
X126164888Y-90476657D02*
X126117268Y-90429038D01*
X126117268Y-90429038D02*
X125974411Y-90333800D01*
X125974411Y-90333800D02*
X125783935Y-90286181D01*
X125783935Y-90286181D02*
X125402983Y-90286181D01*
X125402983Y-90286181D02*
X125307745Y-90333800D01*
X125307745Y-90333800D02*
X125260126Y-90381419D01*
X125260126Y-90381419D02*
X125212507Y-90476657D01*
X125212507Y-90476657D02*
X125212507Y-90667133D01*
X125212507Y-90667133D02*
X125260126Y-90762371D01*
X125260126Y-90762371D02*
X125307745Y-90809990D01*
X125307745Y-90809990D02*
X125402983Y-90857609D01*
X125402983Y-90857609D02*
X125641078Y-90857609D01*
X125641078Y-90857609D02*
X125736316Y-90809990D01*
X125736316Y-90809990D02*
X125783935Y-90762371D01*
X125783935Y-90762371D02*
X125831554Y-90667133D01*
X125831554Y-90667133D02*
X125831554Y-90476657D01*
X125831554Y-90476657D02*
X125783935Y-90381419D01*
X125783935Y-90381419D02*
X125736316Y-90333800D01*
X125736316Y-90333800D02*
X125641078Y-90286181D01*
X47624819Y-103268094D02*
X46624819Y-103268094D01*
X46624819Y-103268094D02*
X46624819Y-103029999D01*
X46624819Y-103029999D02*
X46672438Y-102887142D01*
X46672438Y-102887142D02*
X46767676Y-102791904D01*
X46767676Y-102791904D02*
X46862914Y-102744285D01*
X46862914Y-102744285D02*
X47053390Y-102696666D01*
X47053390Y-102696666D02*
X47196247Y-102696666D01*
X47196247Y-102696666D02*
X47386723Y-102744285D01*
X47386723Y-102744285D02*
X47481961Y-102791904D01*
X47481961Y-102791904D02*
X47577200Y-102887142D01*
X47577200Y-102887142D02*
X47624819Y-103029999D01*
X47624819Y-103029999D02*
X47624819Y-103268094D01*
X47624819Y-101744285D02*
X47624819Y-102315713D01*
X47624819Y-102029999D02*
X46624819Y-102029999D01*
X46624819Y-102029999D02*
X46767676Y-102125237D01*
X46767676Y-102125237D02*
X46862914Y-102220475D01*
X46862914Y-102220475D02*
X46910533Y-102315713D01*
X123266666Y-135254819D02*
X123266666Y-135969104D01*
X123266666Y-135969104D02*
X123219047Y-136111961D01*
X123219047Y-136111961D02*
X123123809Y-136207200D01*
X123123809Y-136207200D02*
X122980952Y-136254819D01*
X122980952Y-136254819D02*
X122885714Y-136254819D01*
X124171428Y-135254819D02*
X123980952Y-135254819D01*
X123980952Y-135254819D02*
X123885714Y-135302438D01*
X123885714Y-135302438D02*
X123838095Y-135350057D01*
X123838095Y-135350057D02*
X123742857Y-135492914D01*
X123742857Y-135492914D02*
X123695238Y-135683390D01*
X123695238Y-135683390D02*
X123695238Y-136064342D01*
X123695238Y-136064342D02*
X123742857Y-136159580D01*
X123742857Y-136159580D02*
X123790476Y-136207200D01*
X123790476Y-136207200D02*
X123885714Y-136254819D01*
X123885714Y-136254819D02*
X124076190Y-136254819D01*
X124076190Y-136254819D02*
X124171428Y-136207200D01*
X124171428Y-136207200D02*
X124219047Y-136159580D01*
X124219047Y-136159580D02*
X124266666Y-136064342D01*
X124266666Y-136064342D02*
X124266666Y-135826247D01*
X124266666Y-135826247D02*
X124219047Y-135731009D01*
X124219047Y-135731009D02*
X124171428Y-135683390D01*
X124171428Y-135683390D02*
X124076190Y-135635771D01*
X124076190Y-135635771D02*
X123885714Y-135635771D01*
X123885714Y-135635771D02*
X123790476Y-135683390D01*
X123790476Y-135683390D02*
X123742857Y-135731009D01*
X123742857Y-135731009D02*
X123695238Y-135826247D01*
X56033333Y-86954819D02*
X55700000Y-86478628D01*
X55461905Y-86954819D02*
X55461905Y-85954819D01*
X55461905Y-85954819D02*
X55842857Y-85954819D01*
X55842857Y-85954819D02*
X55938095Y-86002438D01*
X55938095Y-86002438D02*
X55985714Y-86050057D01*
X55985714Y-86050057D02*
X56033333Y-86145295D01*
X56033333Y-86145295D02*
X56033333Y-86288152D01*
X56033333Y-86288152D02*
X55985714Y-86383390D01*
X55985714Y-86383390D02*
X55938095Y-86431009D01*
X55938095Y-86431009D02*
X55842857Y-86478628D01*
X55842857Y-86478628D02*
X55461905Y-86478628D01*
X56985714Y-86954819D02*
X56414286Y-86954819D01*
X56700000Y-86954819D02*
X56700000Y-85954819D01*
X56700000Y-85954819D02*
X56604762Y-86097676D01*
X56604762Y-86097676D02*
X56509524Y-86192914D01*
X56509524Y-86192914D02*
X56414286Y-86240533D01*
X51506666Y-136934819D02*
X51506666Y-137649104D01*
X51506666Y-137649104D02*
X51459047Y-137791961D01*
X51459047Y-137791961D02*
X51363809Y-137887200D01*
X51363809Y-137887200D02*
X51220952Y-137934819D01*
X51220952Y-137934819D02*
X51125714Y-137934819D01*
X51887619Y-136934819D02*
X52506666Y-136934819D01*
X52506666Y-136934819D02*
X52173333Y-137315771D01*
X52173333Y-137315771D02*
X52316190Y-137315771D01*
X52316190Y-137315771D02*
X52411428Y-137363390D01*
X52411428Y-137363390D02*
X52459047Y-137411009D01*
X52459047Y-137411009D02*
X52506666Y-137506247D01*
X52506666Y-137506247D02*
X52506666Y-137744342D01*
X52506666Y-137744342D02*
X52459047Y-137839580D01*
X52459047Y-137839580D02*
X52411428Y-137887200D01*
X52411428Y-137887200D02*
X52316190Y-137934819D01*
X52316190Y-137934819D02*
X52030476Y-137934819D01*
X52030476Y-137934819D02*
X51935238Y-137887200D01*
X51935238Y-137887200D02*
X51887619Y-137839580D01*
X85491250Y-126135300D02*
X85015059Y-126468633D01*
X85491250Y-126706728D02*
X84491250Y-126706728D01*
X84491250Y-126706728D02*
X84491250Y-126325776D01*
X84491250Y-126325776D02*
X84538869Y-126230538D01*
X84538869Y-126230538D02*
X84586488Y-126182919D01*
X84586488Y-126182919D02*
X84681726Y-126135300D01*
X84681726Y-126135300D02*
X84824583Y-126135300D01*
X84824583Y-126135300D02*
X84919821Y-126182919D01*
X84919821Y-126182919D02*
X84967440Y-126230538D01*
X84967440Y-126230538D02*
X85015059Y-126325776D01*
X85015059Y-126325776D02*
X85015059Y-126706728D01*
X84919821Y-125563871D02*
X84872202Y-125659109D01*
X84872202Y-125659109D02*
X84824583Y-125706728D01*
X84824583Y-125706728D02*
X84729345Y-125754347D01*
X84729345Y-125754347D02*
X84681726Y-125754347D01*
X84681726Y-125754347D02*
X84586488Y-125706728D01*
X84586488Y-125706728D02*
X84538869Y-125659109D01*
X84538869Y-125659109D02*
X84491250Y-125563871D01*
X84491250Y-125563871D02*
X84491250Y-125373395D01*
X84491250Y-125373395D02*
X84538869Y-125278157D01*
X84538869Y-125278157D02*
X84586488Y-125230538D01*
X84586488Y-125230538D02*
X84681726Y-125182919D01*
X84681726Y-125182919D02*
X84729345Y-125182919D01*
X84729345Y-125182919D02*
X84824583Y-125230538D01*
X84824583Y-125230538D02*
X84872202Y-125278157D01*
X84872202Y-125278157D02*
X84919821Y-125373395D01*
X84919821Y-125373395D02*
X84919821Y-125563871D01*
X84919821Y-125563871D02*
X84967440Y-125659109D01*
X84967440Y-125659109D02*
X85015059Y-125706728D01*
X85015059Y-125706728D02*
X85110297Y-125754347D01*
X85110297Y-125754347D02*
X85300773Y-125754347D01*
X85300773Y-125754347D02*
X85396011Y-125706728D01*
X85396011Y-125706728D02*
X85443631Y-125659109D01*
X85443631Y-125659109D02*
X85491250Y-125563871D01*
X85491250Y-125563871D02*
X85491250Y-125373395D01*
X85491250Y-125373395D02*
X85443631Y-125278157D01*
X85443631Y-125278157D02*
X85396011Y-125230538D01*
X85396011Y-125230538D02*
X85300773Y-125182919D01*
X85300773Y-125182919D02*
X85110297Y-125182919D01*
X85110297Y-125182919D02*
X85015059Y-125230538D01*
X85015059Y-125230538D02*
X84967440Y-125278157D01*
X84967440Y-125278157D02*
X84919821Y-125373395D01*
X66099030Y-121152026D02*
X65622839Y-121485359D01*
X66099030Y-121723454D02*
X65099030Y-121723454D01*
X65099030Y-121723454D02*
X65099030Y-121342502D01*
X65099030Y-121342502D02*
X65146649Y-121247264D01*
X65146649Y-121247264D02*
X65194268Y-121199645D01*
X65194268Y-121199645D02*
X65289506Y-121152026D01*
X65289506Y-121152026D02*
X65432363Y-121152026D01*
X65432363Y-121152026D02*
X65527601Y-121199645D01*
X65527601Y-121199645D02*
X65575220Y-121247264D01*
X65575220Y-121247264D02*
X65622839Y-121342502D01*
X65622839Y-121342502D02*
X65622839Y-121723454D01*
X65194268Y-120771073D02*
X65146649Y-120723454D01*
X65146649Y-120723454D02*
X65099030Y-120628216D01*
X65099030Y-120628216D02*
X65099030Y-120390121D01*
X65099030Y-120390121D02*
X65146649Y-120294883D01*
X65146649Y-120294883D02*
X65194268Y-120247264D01*
X65194268Y-120247264D02*
X65289506Y-120199645D01*
X65289506Y-120199645D02*
X65384744Y-120199645D01*
X65384744Y-120199645D02*
X65527601Y-120247264D01*
X65527601Y-120247264D02*
X66099030Y-120818692D01*
X66099030Y-120818692D02*
X66099030Y-120199645D01*
X94941250Y-126135300D02*
X94465059Y-126468633D01*
X94941250Y-126706728D02*
X93941250Y-126706728D01*
X93941250Y-126706728D02*
X93941250Y-126325776D01*
X93941250Y-126325776D02*
X93988869Y-126230538D01*
X93988869Y-126230538D02*
X94036488Y-126182919D01*
X94036488Y-126182919D02*
X94131726Y-126135300D01*
X94131726Y-126135300D02*
X94274583Y-126135300D01*
X94274583Y-126135300D02*
X94369821Y-126182919D01*
X94369821Y-126182919D02*
X94417440Y-126230538D01*
X94417440Y-126230538D02*
X94465059Y-126325776D01*
X94465059Y-126325776D02*
X94465059Y-126706728D01*
X93941250Y-125278157D02*
X93941250Y-125468633D01*
X93941250Y-125468633D02*
X93988869Y-125563871D01*
X93988869Y-125563871D02*
X94036488Y-125611490D01*
X94036488Y-125611490D02*
X94179345Y-125706728D01*
X94179345Y-125706728D02*
X94369821Y-125754347D01*
X94369821Y-125754347D02*
X94750773Y-125754347D01*
X94750773Y-125754347D02*
X94846011Y-125706728D01*
X94846011Y-125706728D02*
X94893631Y-125659109D01*
X94893631Y-125659109D02*
X94941250Y-125563871D01*
X94941250Y-125563871D02*
X94941250Y-125373395D01*
X94941250Y-125373395D02*
X94893631Y-125278157D01*
X94893631Y-125278157D02*
X94846011Y-125230538D01*
X94846011Y-125230538D02*
X94750773Y-125182919D01*
X94750773Y-125182919D02*
X94512678Y-125182919D01*
X94512678Y-125182919D02*
X94417440Y-125230538D01*
X94417440Y-125230538D02*
X94369821Y-125278157D01*
X94369821Y-125278157D02*
X94322202Y-125373395D01*
X94322202Y-125373395D02*
X94322202Y-125563871D01*
X94322202Y-125563871D02*
X94369821Y-125659109D01*
X94369821Y-125659109D02*
X94417440Y-125706728D01*
X94417440Y-125706728D02*
X94512678Y-125754347D01*
X76276003Y-121156511D02*
X75799812Y-121489844D01*
X76276003Y-121727939D02*
X75276003Y-121727939D01*
X75276003Y-121727939D02*
X75276003Y-121346987D01*
X75276003Y-121346987D02*
X75323622Y-121251749D01*
X75323622Y-121251749D02*
X75371241Y-121204130D01*
X75371241Y-121204130D02*
X75466479Y-121156511D01*
X75466479Y-121156511D02*
X75609336Y-121156511D01*
X75609336Y-121156511D02*
X75704574Y-121204130D01*
X75704574Y-121204130D02*
X75752193Y-121251749D01*
X75752193Y-121251749D02*
X75799812Y-121346987D01*
X75799812Y-121346987D02*
X75799812Y-121727939D01*
X75609336Y-120299368D02*
X76276003Y-120299368D01*
X75228384Y-120537463D02*
X75942669Y-120775558D01*
X75942669Y-120775558D02*
X75942669Y-120156511D01*
X108419047Y-131131009D02*
X108561904Y-131178628D01*
X108561904Y-131178628D02*
X108609523Y-131226247D01*
X108609523Y-131226247D02*
X108657142Y-131321485D01*
X108657142Y-131321485D02*
X108657142Y-131464342D01*
X108657142Y-131464342D02*
X108609523Y-131559580D01*
X108609523Y-131559580D02*
X108561904Y-131607200D01*
X108561904Y-131607200D02*
X108466666Y-131654819D01*
X108466666Y-131654819D02*
X108085714Y-131654819D01*
X108085714Y-131654819D02*
X108085714Y-130654819D01*
X108085714Y-130654819D02*
X108419047Y-130654819D01*
X108419047Y-130654819D02*
X108514285Y-130702438D01*
X108514285Y-130702438D02*
X108561904Y-130750057D01*
X108561904Y-130750057D02*
X108609523Y-130845295D01*
X108609523Y-130845295D02*
X108609523Y-130940533D01*
X108609523Y-130940533D02*
X108561904Y-131035771D01*
X108561904Y-131035771D02*
X108514285Y-131083390D01*
X108514285Y-131083390D02*
X108419047Y-131131009D01*
X108419047Y-131131009D02*
X108085714Y-131131009D01*
X108990476Y-130654819D02*
X109657142Y-130654819D01*
X109657142Y-130654819D02*
X108990476Y-131654819D01*
X108990476Y-131654819D02*
X109657142Y-131654819D01*
X110561904Y-131654819D02*
X109990476Y-131654819D01*
X110276190Y-131654819D02*
X110276190Y-130654819D01*
X110276190Y-130654819D02*
X110180952Y-130797676D01*
X110180952Y-130797676D02*
X110085714Y-130892914D01*
X110085714Y-130892914D02*
X109990476Y-130940533D01*
X105109048Y-128733866D02*
X105870953Y-128733866D01*
X105490000Y-129114819D02*
X105490000Y-128352914D01*
X100674819Y-148309523D02*
X101389104Y-148309523D01*
X101389104Y-148309523D02*
X101531961Y-148357142D01*
X101531961Y-148357142D02*
X101627200Y-148452380D01*
X101627200Y-148452380D02*
X101674819Y-148595237D01*
X101674819Y-148595237D02*
X101674819Y-148690475D01*
X101674819Y-147309523D02*
X101674819Y-147880951D01*
X101674819Y-147595237D02*
X100674819Y-147595237D01*
X100674819Y-147595237D02*
X100817676Y-147690475D01*
X100817676Y-147690475D02*
X100912914Y-147785713D01*
X100912914Y-147785713D02*
X100960533Y-147880951D01*
X100674819Y-146690475D02*
X100674819Y-146595237D01*
X100674819Y-146595237D02*
X100722438Y-146499999D01*
X100722438Y-146499999D02*
X100770057Y-146452380D01*
X100770057Y-146452380D02*
X100865295Y-146404761D01*
X100865295Y-146404761D02*
X101055771Y-146357142D01*
X101055771Y-146357142D02*
X101293866Y-146357142D01*
X101293866Y-146357142D02*
X101484342Y-146404761D01*
X101484342Y-146404761D02*
X101579580Y-146452380D01*
X101579580Y-146452380D02*
X101627200Y-146499999D01*
X101627200Y-146499999D02*
X101674819Y-146595237D01*
X101674819Y-146595237D02*
X101674819Y-146690475D01*
X101674819Y-146690475D02*
X101627200Y-146785713D01*
X101627200Y-146785713D02*
X101579580Y-146833332D01*
X101579580Y-146833332D02*
X101484342Y-146880951D01*
X101484342Y-146880951D02*
X101293866Y-146928570D01*
X101293866Y-146928570D02*
X101055771Y-146928570D01*
X101055771Y-146928570D02*
X100865295Y-146880951D01*
X100865295Y-146880951D02*
X100770057Y-146833332D01*
X100770057Y-146833332D02*
X100722438Y-146785713D01*
X100722438Y-146785713D02*
X100674819Y-146690475D01*
X58049819Y-126453094D02*
X57049819Y-126453094D01*
X58049819Y-125881666D02*
X57478390Y-126310237D01*
X57049819Y-125881666D02*
X57621247Y-126453094D01*
X58049819Y-124929285D02*
X58049819Y-125500713D01*
X58049819Y-125214999D02*
X57049819Y-125214999D01*
X57049819Y-125214999D02*
X57192676Y-125310237D01*
X57192676Y-125310237D02*
X57287914Y-125405475D01*
X57287914Y-125405475D02*
X57335533Y-125500713D01*
X127194819Y-143773333D02*
X127909104Y-143773333D01*
X127909104Y-143773333D02*
X128051961Y-143820952D01*
X128051961Y-143820952D02*
X128147200Y-143916190D01*
X128147200Y-143916190D02*
X128194819Y-144059047D01*
X128194819Y-144059047D02*
X128194819Y-144154285D01*
X127290057Y-143344761D02*
X127242438Y-143297142D01*
X127242438Y-143297142D02*
X127194819Y-143201904D01*
X127194819Y-143201904D02*
X127194819Y-142963809D01*
X127194819Y-142963809D02*
X127242438Y-142868571D01*
X127242438Y-142868571D02*
X127290057Y-142820952D01*
X127290057Y-142820952D02*
X127385295Y-142773333D01*
X127385295Y-142773333D02*
X127480533Y-142773333D01*
X127480533Y-142773333D02*
X127623390Y-142820952D01*
X127623390Y-142820952D02*
X128194819Y-143392380D01*
X128194819Y-143392380D02*
X128194819Y-142773333D01*
X71154819Y-121166666D02*
X70678628Y-121499999D01*
X71154819Y-121738094D02*
X70154819Y-121738094D01*
X70154819Y-121738094D02*
X70154819Y-121357142D01*
X70154819Y-121357142D02*
X70202438Y-121261904D01*
X70202438Y-121261904D02*
X70250057Y-121214285D01*
X70250057Y-121214285D02*
X70345295Y-121166666D01*
X70345295Y-121166666D02*
X70488152Y-121166666D01*
X70488152Y-121166666D02*
X70583390Y-121214285D01*
X70583390Y-121214285D02*
X70631009Y-121261904D01*
X70631009Y-121261904D02*
X70678628Y-121357142D01*
X70678628Y-121357142D02*
X70678628Y-121738094D01*
X70154819Y-120833332D02*
X70154819Y-120214285D01*
X70154819Y-120214285D02*
X70535771Y-120547618D01*
X70535771Y-120547618D02*
X70535771Y-120404761D01*
X70535771Y-120404761D02*
X70583390Y-120309523D01*
X70583390Y-120309523D02*
X70631009Y-120261904D01*
X70631009Y-120261904D02*
X70726247Y-120214285D01*
X70726247Y-120214285D02*
X70964342Y-120214285D01*
X70964342Y-120214285D02*
X71059580Y-120261904D01*
X71059580Y-120261904D02*
X71107200Y-120309523D01*
X71107200Y-120309523D02*
X71154819Y-120404761D01*
X71154819Y-120404761D02*
X71154819Y-120690475D01*
X71154819Y-120690475D02*
X71107200Y-120785713D01*
X71107200Y-120785713D02*
X71059580Y-120833332D01*
X128749104Y-102694285D02*
X128749104Y-102218095D01*
X129034819Y-102789523D02*
X128034819Y-102456190D01*
X128034819Y-102456190D02*
X129034819Y-102122857D01*
X129034819Y-101265714D02*
X129034819Y-101837142D01*
X129034819Y-101551428D02*
X128034819Y-101551428D01*
X128034819Y-101551428D02*
X128177676Y-101646666D01*
X128177676Y-101646666D02*
X128272914Y-101741904D01*
X128272914Y-101741904D02*
X128320533Y-101837142D01*
X88485180Y-100718095D02*
X87675657Y-100718095D01*
X87675657Y-100718095D02*
X87580419Y-100765714D01*
X87580419Y-100765714D02*
X87532800Y-100813333D01*
X87532800Y-100813333D02*
X87485180Y-100908571D01*
X87485180Y-100908571D02*
X87485180Y-101099047D01*
X87485180Y-101099047D02*
X87532800Y-101194285D01*
X87532800Y-101194285D02*
X87580419Y-101241904D01*
X87580419Y-101241904D02*
X87675657Y-101289523D01*
X87675657Y-101289523D02*
X88485180Y-101289523D01*
X87532800Y-101718095D02*
X87485180Y-101860952D01*
X87485180Y-101860952D02*
X87485180Y-102099047D01*
X87485180Y-102099047D02*
X87532800Y-102194285D01*
X87532800Y-102194285D02*
X87580419Y-102241904D01*
X87580419Y-102241904D02*
X87675657Y-102289523D01*
X87675657Y-102289523D02*
X87770895Y-102289523D01*
X87770895Y-102289523D02*
X87866133Y-102241904D01*
X87866133Y-102241904D02*
X87913752Y-102194285D01*
X87913752Y-102194285D02*
X87961371Y-102099047D01*
X87961371Y-102099047D02*
X88008990Y-101908571D01*
X88008990Y-101908571D02*
X88056609Y-101813333D01*
X88056609Y-101813333D02*
X88104228Y-101765714D01*
X88104228Y-101765714D02*
X88199466Y-101718095D01*
X88199466Y-101718095D02*
X88294704Y-101718095D01*
X88294704Y-101718095D02*
X88389942Y-101765714D01*
X88389942Y-101765714D02*
X88437561Y-101813333D01*
X88437561Y-101813333D02*
X88485180Y-101908571D01*
X88485180Y-101908571D02*
X88485180Y-102146666D01*
X88485180Y-102146666D02*
X88437561Y-102289523D01*
X88008990Y-103051428D02*
X87961371Y-103194285D01*
X87961371Y-103194285D02*
X87913752Y-103241904D01*
X87913752Y-103241904D02*
X87818514Y-103289523D01*
X87818514Y-103289523D02*
X87675657Y-103289523D01*
X87675657Y-103289523D02*
X87580419Y-103241904D01*
X87580419Y-103241904D02*
X87532800Y-103194285D01*
X87532800Y-103194285D02*
X87485180Y-103099047D01*
X87485180Y-103099047D02*
X87485180Y-102718095D01*
X87485180Y-102718095D02*
X88485180Y-102718095D01*
X88485180Y-102718095D02*
X88485180Y-103051428D01*
X88485180Y-103051428D02*
X88437561Y-103146666D01*
X88437561Y-103146666D02*
X88389942Y-103194285D01*
X88389942Y-103194285D02*
X88294704Y-103241904D01*
X88294704Y-103241904D02*
X88199466Y-103241904D01*
X88199466Y-103241904D02*
X88104228Y-103194285D01*
X88104228Y-103194285D02*
X88056609Y-103146666D01*
X88056609Y-103146666D02*
X88008990Y-103051428D01*
X88008990Y-103051428D02*
X88008990Y-102718095D01*
X108766666Y-136877319D02*
X108766666Y-137591604D01*
X108766666Y-137591604D02*
X108719047Y-137734461D01*
X108719047Y-137734461D02*
X108623809Y-137829700D01*
X108623809Y-137829700D02*
X108480952Y-137877319D01*
X108480952Y-137877319D02*
X108385714Y-137877319D01*
X109719047Y-136877319D02*
X109242857Y-136877319D01*
X109242857Y-136877319D02*
X109195238Y-137353509D01*
X109195238Y-137353509D02*
X109242857Y-137305890D01*
X109242857Y-137305890D02*
X109338095Y-137258271D01*
X109338095Y-137258271D02*
X109576190Y-137258271D01*
X109576190Y-137258271D02*
X109671428Y-137305890D01*
X109671428Y-137305890D02*
X109719047Y-137353509D01*
X109719047Y-137353509D02*
X109766666Y-137448747D01*
X109766666Y-137448747D02*
X109766666Y-137686842D01*
X109766666Y-137686842D02*
X109719047Y-137782080D01*
X109719047Y-137782080D02*
X109671428Y-137829700D01*
X109671428Y-137829700D02*
X109576190Y-137877319D01*
X109576190Y-137877319D02*
X109338095Y-137877319D01*
X109338095Y-137877319D02*
X109242857Y-137829700D01*
X109242857Y-137829700D02*
X109195238Y-137782080D01*
X99591250Y-126115300D02*
X99115059Y-126448633D01*
X99591250Y-126686728D02*
X98591250Y-126686728D01*
X98591250Y-126686728D02*
X98591250Y-126305776D01*
X98591250Y-126305776D02*
X98638869Y-126210538D01*
X98638869Y-126210538D02*
X98686488Y-126162919D01*
X98686488Y-126162919D02*
X98781726Y-126115300D01*
X98781726Y-126115300D02*
X98924583Y-126115300D01*
X98924583Y-126115300D02*
X99019821Y-126162919D01*
X99019821Y-126162919D02*
X99067440Y-126210538D01*
X99067440Y-126210538D02*
X99115059Y-126305776D01*
X99115059Y-126305776D02*
X99115059Y-126686728D01*
X98591250Y-125210538D02*
X98591250Y-125686728D01*
X98591250Y-125686728D02*
X99067440Y-125734347D01*
X99067440Y-125734347D02*
X99019821Y-125686728D01*
X99019821Y-125686728D02*
X98972202Y-125591490D01*
X98972202Y-125591490D02*
X98972202Y-125353395D01*
X98972202Y-125353395D02*
X99019821Y-125258157D01*
X99019821Y-125258157D02*
X99067440Y-125210538D01*
X99067440Y-125210538D02*
X99162678Y-125162919D01*
X99162678Y-125162919D02*
X99400773Y-125162919D01*
X99400773Y-125162919D02*
X99496011Y-125210538D01*
X99496011Y-125210538D02*
X99543631Y-125258157D01*
X99543631Y-125258157D02*
X99591250Y-125353395D01*
X99591250Y-125353395D02*
X99591250Y-125591490D01*
X99591250Y-125591490D02*
X99543631Y-125686728D01*
X99543631Y-125686728D02*
X99496011Y-125734347D01*
X84909345Y-113231484D02*
X85623630Y-113231484D01*
X85623630Y-113231484D02*
X85766487Y-113279103D01*
X85766487Y-113279103D02*
X85861726Y-113374341D01*
X85861726Y-113374341D02*
X85909345Y-113517198D01*
X85909345Y-113517198D02*
X85909345Y-113612436D01*
X84909345Y-112850531D02*
X84909345Y-112183865D01*
X84909345Y-112183865D02*
X85909345Y-112612436D01*
X90191250Y-126135300D02*
X89715059Y-126468633D01*
X90191250Y-126706728D02*
X89191250Y-126706728D01*
X89191250Y-126706728D02*
X89191250Y-126325776D01*
X89191250Y-126325776D02*
X89238869Y-126230538D01*
X89238869Y-126230538D02*
X89286488Y-126182919D01*
X89286488Y-126182919D02*
X89381726Y-126135300D01*
X89381726Y-126135300D02*
X89524583Y-126135300D01*
X89524583Y-126135300D02*
X89619821Y-126182919D01*
X89619821Y-126182919D02*
X89667440Y-126230538D01*
X89667440Y-126230538D02*
X89715059Y-126325776D01*
X89715059Y-126325776D02*
X89715059Y-126706728D01*
X89191250Y-125801966D02*
X89191250Y-125135300D01*
X89191250Y-125135300D02*
X90191250Y-125563871D01*
X77886666Y-137334819D02*
X77886666Y-138049104D01*
X77886666Y-138049104D02*
X77839047Y-138191961D01*
X77839047Y-138191961D02*
X77743809Y-138287200D01*
X77743809Y-138287200D02*
X77600952Y-138334819D01*
X77600952Y-138334819D02*
X77505714Y-138334819D01*
X78886666Y-138334819D02*
X78315238Y-138334819D01*
X78600952Y-138334819D02*
X78600952Y-137334819D01*
X78600952Y-137334819D02*
X78505714Y-137477676D01*
X78505714Y-137477676D02*
X78410476Y-137572914D01*
X78410476Y-137572914D02*
X78315238Y-137620533D01*
X47354819Y-96738094D02*
X46354819Y-96738094D01*
X46354819Y-96738094D02*
X46354819Y-96499999D01*
X46354819Y-96499999D02*
X46402438Y-96357142D01*
X46402438Y-96357142D02*
X46497676Y-96261904D01*
X46497676Y-96261904D02*
X46592914Y-96214285D01*
X46592914Y-96214285D02*
X46783390Y-96166666D01*
X46783390Y-96166666D02*
X46926247Y-96166666D01*
X46926247Y-96166666D02*
X47116723Y-96214285D01*
X47116723Y-96214285D02*
X47211961Y-96261904D01*
X47211961Y-96261904D02*
X47307200Y-96357142D01*
X47307200Y-96357142D02*
X47354819Y-96499999D01*
X47354819Y-96499999D02*
X47354819Y-96738094D01*
X46450057Y-95785713D02*
X46402438Y-95738094D01*
X46402438Y-95738094D02*
X46354819Y-95642856D01*
X46354819Y-95642856D02*
X46354819Y-95404761D01*
X46354819Y-95404761D02*
X46402438Y-95309523D01*
X46402438Y-95309523D02*
X46450057Y-95261904D01*
X46450057Y-95261904D02*
X46545295Y-95214285D01*
X46545295Y-95214285D02*
X46640533Y-95214285D01*
X46640533Y-95214285D02*
X46783390Y-95261904D01*
X46783390Y-95261904D02*
X47354819Y-95833332D01*
X47354819Y-95833332D02*
X47354819Y-95214285D01*
X51361905Y-112454819D02*
X51361905Y-111454819D01*
X51361905Y-111454819D02*
X51600000Y-111454819D01*
X51600000Y-111454819D02*
X51742857Y-111502438D01*
X51742857Y-111502438D02*
X51838095Y-111597676D01*
X51838095Y-111597676D02*
X51885714Y-111692914D01*
X51885714Y-111692914D02*
X51933333Y-111883390D01*
X51933333Y-111883390D02*
X51933333Y-112026247D01*
X51933333Y-112026247D02*
X51885714Y-112216723D01*
X51885714Y-112216723D02*
X51838095Y-112311961D01*
X51838095Y-112311961D02*
X51742857Y-112407200D01*
X51742857Y-112407200D02*
X51600000Y-112454819D01*
X51600000Y-112454819D02*
X51361905Y-112454819D01*
X52790476Y-111788152D02*
X52790476Y-112454819D01*
X52552381Y-111407200D02*
X52314286Y-112121485D01*
X52314286Y-112121485D02*
X52933333Y-112121485D01*
X46758095Y-110554819D02*
X46758095Y-109554819D01*
X47329523Y-110554819D02*
X46900952Y-109983390D01*
X47329523Y-109554819D02*
X46758095Y-110126247D01*
X100643279Y-142801217D02*
X101357564Y-142801217D01*
X101357564Y-142801217D02*
X101500421Y-142848836D01*
X101500421Y-142848836D02*
X101595660Y-142944074D01*
X101595660Y-142944074D02*
X101643279Y-143086931D01*
X101643279Y-143086931D02*
X101643279Y-143182169D01*
X101071850Y-142182169D02*
X101024231Y-142277407D01*
X101024231Y-142277407D02*
X100976612Y-142325026D01*
X100976612Y-142325026D02*
X100881374Y-142372645D01*
X100881374Y-142372645D02*
X100833755Y-142372645D01*
X100833755Y-142372645D02*
X100738517Y-142325026D01*
X100738517Y-142325026D02*
X100690898Y-142277407D01*
X100690898Y-142277407D02*
X100643279Y-142182169D01*
X100643279Y-142182169D02*
X100643279Y-141991693D01*
X100643279Y-141991693D02*
X100690898Y-141896455D01*
X100690898Y-141896455D02*
X100738517Y-141848836D01*
X100738517Y-141848836D02*
X100833755Y-141801217D01*
X100833755Y-141801217D02*
X100881374Y-141801217D01*
X100881374Y-141801217D02*
X100976612Y-141848836D01*
X100976612Y-141848836D02*
X101024231Y-141896455D01*
X101024231Y-141896455D02*
X101071850Y-141991693D01*
X101071850Y-141991693D02*
X101071850Y-142182169D01*
X101071850Y-142182169D02*
X101119469Y-142277407D01*
X101119469Y-142277407D02*
X101167088Y-142325026D01*
X101167088Y-142325026D02*
X101262326Y-142372645D01*
X101262326Y-142372645D02*
X101452802Y-142372645D01*
X101452802Y-142372645D02*
X101548040Y-142325026D01*
X101548040Y-142325026D02*
X101595660Y-142277407D01*
X101595660Y-142277407D02*
X101643279Y-142182169D01*
X101643279Y-142182169D02*
X101643279Y-141991693D01*
X101643279Y-141991693D02*
X101595660Y-141896455D01*
X101595660Y-141896455D02*
X101548040Y-141848836D01*
X101548040Y-141848836D02*
X101452802Y-141801217D01*
X101452802Y-141801217D02*
X101262326Y-141801217D01*
X101262326Y-141801217D02*
X101167088Y-141848836D01*
X101167088Y-141848836D02*
X101119469Y-141896455D01*
X101119469Y-141896455D02*
X101071850Y-141991693D01*
X72478972Y-131975417D02*
X72383734Y-131927798D01*
X72383734Y-131927798D02*
X72288496Y-131832560D01*
X72288496Y-131832560D02*
X72145639Y-131689702D01*
X72145639Y-131689702D02*
X72050401Y-131642083D01*
X72050401Y-131642083D02*
X71955163Y-131642083D01*
X72002782Y-131880179D02*
X71907544Y-131832560D01*
X71907544Y-131832560D02*
X71812306Y-131737321D01*
X71812306Y-131737321D02*
X71764687Y-131546845D01*
X71764687Y-131546845D02*
X71764687Y-131213512D01*
X71764687Y-131213512D02*
X71812306Y-131023036D01*
X71812306Y-131023036D02*
X71907544Y-130927798D01*
X71907544Y-130927798D02*
X72002782Y-130880179D01*
X72002782Y-130880179D02*
X72193258Y-130880179D01*
X72193258Y-130880179D02*
X72288496Y-130927798D01*
X72288496Y-130927798D02*
X72383734Y-131023036D01*
X72383734Y-131023036D02*
X72431353Y-131213512D01*
X72431353Y-131213512D02*
X72431353Y-131546845D01*
X72431353Y-131546845D02*
X72383734Y-131737321D01*
X72383734Y-131737321D02*
X72288496Y-131832560D01*
X72288496Y-131832560D02*
X72193258Y-131880179D01*
X72193258Y-131880179D02*
X72002782Y-131880179D01*
X72812306Y-130975417D02*
X72859925Y-130927798D01*
X72859925Y-130927798D02*
X72955163Y-130880179D01*
X72955163Y-130880179D02*
X73193258Y-130880179D01*
X73193258Y-130880179D02*
X73288496Y-130927798D01*
X73288496Y-130927798D02*
X73336115Y-130975417D01*
X73336115Y-130975417D02*
X73383734Y-131070655D01*
X73383734Y-131070655D02*
X73383734Y-131165893D01*
X73383734Y-131165893D02*
X73336115Y-131308750D01*
X73336115Y-131308750D02*
X72764687Y-131880179D01*
X72764687Y-131880179D02*
X73383734Y-131880179D01*
X127645595Y-125034819D02*
X127645595Y-125844342D01*
X127645595Y-125844342D02*
X127693214Y-125939580D01*
X127693214Y-125939580D02*
X127740833Y-125987200D01*
X127740833Y-125987200D02*
X127836071Y-126034819D01*
X127836071Y-126034819D02*
X128026547Y-126034819D01*
X128026547Y-126034819D02*
X128121785Y-125987200D01*
X128121785Y-125987200D02*
X128169404Y-125939580D01*
X128169404Y-125939580D02*
X128217023Y-125844342D01*
X128217023Y-125844342D02*
X128217023Y-125034819D01*
X129217023Y-126034819D02*
X128645595Y-126034819D01*
X128931309Y-126034819D02*
X128931309Y-125034819D01*
X128931309Y-125034819D02*
X128836071Y-125177676D01*
X128836071Y-125177676D02*
X128740833Y-125272914D01*
X128740833Y-125272914D02*
X128645595Y-125320533D01*
X63650877Y-138240179D02*
X63650877Y-138954464D01*
X63650877Y-138954464D02*
X63603258Y-139097321D01*
X63603258Y-139097321D02*
X63508020Y-139192560D01*
X63508020Y-139192560D02*
X63365163Y-139240179D01*
X63365163Y-139240179D02*
X63269925Y-139240179D01*
X64555639Y-138573512D02*
X64555639Y-139240179D01*
X64317544Y-138192560D02*
X64079449Y-138906845D01*
X64079449Y-138906845D02*
X64698496Y-138906845D01*
X117659580Y-144566666D02*
X117707200Y-144614285D01*
X117707200Y-144614285D02*
X117754819Y-144757142D01*
X117754819Y-144757142D02*
X117754819Y-144852380D01*
X117754819Y-144852380D02*
X117707200Y-144995237D01*
X117707200Y-144995237D02*
X117611961Y-145090475D01*
X117611961Y-145090475D02*
X117516723Y-145138094D01*
X117516723Y-145138094D02*
X117326247Y-145185713D01*
X117326247Y-145185713D02*
X117183390Y-145185713D01*
X117183390Y-145185713D02*
X116992914Y-145138094D01*
X116992914Y-145138094D02*
X116897676Y-145090475D01*
X116897676Y-145090475D02*
X116802438Y-144995237D01*
X116802438Y-144995237D02*
X116754819Y-144852380D01*
X116754819Y-144852380D02*
X116754819Y-144757142D01*
X116754819Y-144757142D02*
X116802438Y-144614285D01*
X116802438Y-144614285D02*
X116850057Y-144566666D01*
X116754819Y-143661904D02*
X116754819Y-144138094D01*
X116754819Y-144138094D02*
X117231009Y-144185713D01*
X117231009Y-144185713D02*
X117183390Y-144138094D01*
X117183390Y-144138094D02*
X117135771Y-144042856D01*
X117135771Y-144042856D02*
X117135771Y-143804761D01*
X117135771Y-143804761D02*
X117183390Y-143709523D01*
X117183390Y-143709523D02*
X117231009Y-143661904D01*
X117231009Y-143661904D02*
X117326247Y-143614285D01*
X117326247Y-143614285D02*
X117564342Y-143614285D01*
X117564342Y-143614285D02*
X117659580Y-143661904D01*
X117659580Y-143661904D02*
X117707200Y-143709523D01*
X117707200Y-143709523D02*
X117754819Y-143804761D01*
X117754819Y-143804761D02*
X117754819Y-144042856D01*
X117754819Y-144042856D02*
X117707200Y-144138094D01*
X117707200Y-144138094D02*
X117659580Y-144185713D01*
X71489761Y-94254819D02*
X71156428Y-93778628D01*
X70918333Y-94254819D02*
X70918333Y-93254819D01*
X70918333Y-93254819D02*
X71299285Y-93254819D01*
X71299285Y-93254819D02*
X71394523Y-93302438D01*
X71394523Y-93302438D02*
X71442142Y-93350057D01*
X71442142Y-93350057D02*
X71489761Y-93445295D01*
X71489761Y-93445295D02*
X71489761Y-93588152D01*
X71489761Y-93588152D02*
X71442142Y-93683390D01*
X71442142Y-93683390D02*
X71394523Y-93731009D01*
X71394523Y-93731009D02*
X71299285Y-93778628D01*
X71299285Y-93778628D02*
X70918333Y-93778628D01*
X71775476Y-93254819D02*
X72108809Y-94254819D01*
X72108809Y-94254819D02*
X72442142Y-93254819D01*
X73299285Y-94254819D02*
X72727857Y-94254819D01*
X73013571Y-94254819D02*
X73013571Y-93254819D01*
X73013571Y-93254819D02*
X72918333Y-93397676D01*
X72918333Y-93397676D02*
X72823095Y-93492914D01*
X72823095Y-93492914D02*
X72727857Y-93540533D01*
X119901010Y-129209580D02*
X119853391Y-129257200D01*
X119853391Y-129257200D02*
X119710534Y-129304819D01*
X119710534Y-129304819D02*
X119615296Y-129304819D01*
X119615296Y-129304819D02*
X119472439Y-129257200D01*
X119472439Y-129257200D02*
X119377201Y-129161961D01*
X119377201Y-129161961D02*
X119329582Y-129066723D01*
X119329582Y-129066723D02*
X119281963Y-128876247D01*
X119281963Y-128876247D02*
X119281963Y-128733390D01*
X119281963Y-128733390D02*
X119329582Y-128542914D01*
X119329582Y-128542914D02*
X119377201Y-128447676D01*
X119377201Y-128447676D02*
X119472439Y-128352438D01*
X119472439Y-128352438D02*
X119615296Y-128304819D01*
X119615296Y-128304819D02*
X119710534Y-128304819D01*
X119710534Y-128304819D02*
X119853391Y-128352438D01*
X119853391Y-128352438D02*
X119901010Y-128400057D01*
X120758153Y-128638152D02*
X120758153Y-129304819D01*
X120520058Y-128257200D02*
X120281963Y-128971485D01*
X120281963Y-128971485D02*
X120901010Y-128971485D01*
X63404761Y-132000057D02*
X63309523Y-131952438D01*
X63309523Y-131952438D02*
X63214285Y-131857200D01*
X63214285Y-131857200D02*
X63071428Y-131714342D01*
X63071428Y-131714342D02*
X62976190Y-131666723D01*
X62976190Y-131666723D02*
X62880952Y-131666723D01*
X62928571Y-131904819D02*
X62833333Y-131857200D01*
X62833333Y-131857200D02*
X62738095Y-131761961D01*
X62738095Y-131761961D02*
X62690476Y-131571485D01*
X62690476Y-131571485D02*
X62690476Y-131238152D01*
X62690476Y-131238152D02*
X62738095Y-131047676D01*
X62738095Y-131047676D02*
X62833333Y-130952438D01*
X62833333Y-130952438D02*
X62928571Y-130904819D01*
X62928571Y-130904819D02*
X63119047Y-130904819D01*
X63119047Y-130904819D02*
X63214285Y-130952438D01*
X63214285Y-130952438D02*
X63309523Y-131047676D01*
X63309523Y-131047676D02*
X63357142Y-131238152D01*
X63357142Y-131238152D02*
X63357142Y-131571485D01*
X63357142Y-131571485D02*
X63309523Y-131761961D01*
X63309523Y-131761961D02*
X63214285Y-131857200D01*
X63214285Y-131857200D02*
X63119047Y-131904819D01*
X63119047Y-131904819D02*
X62928571Y-131904819D01*
X64214285Y-131238152D02*
X64214285Y-131904819D01*
X63976190Y-130857200D02*
X63738095Y-131571485D01*
X63738095Y-131571485D02*
X64357142Y-131571485D01*
X77978972Y-131975417D02*
X77883734Y-131927798D01*
X77883734Y-131927798D02*
X77788496Y-131832560D01*
X77788496Y-131832560D02*
X77645639Y-131689702D01*
X77645639Y-131689702D02*
X77550401Y-131642083D01*
X77550401Y-131642083D02*
X77455163Y-131642083D01*
X77502782Y-131880179D02*
X77407544Y-131832560D01*
X77407544Y-131832560D02*
X77312306Y-131737321D01*
X77312306Y-131737321D02*
X77264687Y-131546845D01*
X77264687Y-131546845D02*
X77264687Y-131213512D01*
X77264687Y-131213512D02*
X77312306Y-131023036D01*
X77312306Y-131023036D02*
X77407544Y-130927798D01*
X77407544Y-130927798D02*
X77502782Y-130880179D01*
X77502782Y-130880179D02*
X77693258Y-130880179D01*
X77693258Y-130880179D02*
X77788496Y-130927798D01*
X77788496Y-130927798D02*
X77883734Y-131023036D01*
X77883734Y-131023036D02*
X77931353Y-131213512D01*
X77931353Y-131213512D02*
X77931353Y-131546845D01*
X77931353Y-131546845D02*
X77883734Y-131737321D01*
X77883734Y-131737321D02*
X77788496Y-131832560D01*
X77788496Y-131832560D02*
X77693258Y-131880179D01*
X77693258Y-131880179D02*
X77502782Y-131880179D01*
X78883734Y-131880179D02*
X78312306Y-131880179D01*
X78598020Y-131880179D02*
X78598020Y-130880179D01*
X78598020Y-130880179D02*
X78502782Y-131023036D01*
X78502782Y-131023036D02*
X78407544Y-131118274D01*
X78407544Y-131118274D02*
X78312306Y-131165893D01*
D11*
%TO.C,J9*%
X86437688Y-89572848D02*
X86437688Y-92332848D01*
X122107688Y-89572848D02*
X86437688Y-89572848D01*
X122107688Y-89572848D02*
X122107688Y-92332848D01*
X122107688Y-92332848D02*
X86437688Y-92332848D01*
X123377688Y-89572848D02*
X124757688Y-89572848D01*
X124757688Y-89572848D02*
X124757688Y-90952848D01*
%TO.C,D1*%
X48764000Y-104160000D02*
X48920000Y-104160000D01*
X51080000Y-104160000D02*
X51236000Y-104160000D01*
X48764484Y-104160000D02*
G75*
G02*
X48920000Y-100928563I1235516J1560000D01*
G01*
X48920000Y-103640961D02*
G75*
G02*
X48920000Y-101559039I1080000J1040961D01*
G01*
X51080000Y-100928563D02*
G75*
G02*
X51235516Y-104160000I-1080000J-1671437D01*
G01*
X51080000Y-101559039D02*
G75*
G02*
X51080000Y-103640961I-1080000J-1040961D01*
G01*
%TO.C,J6*%
X122520000Y-128945000D02*
X123900000Y-128945000D01*
X122520000Y-130325000D02*
X122520000Y-128945000D01*
X122520000Y-131595000D02*
X122520000Y-134245000D01*
X122520000Y-131595000D02*
X125280000Y-131595000D01*
X122520000Y-134245000D02*
X125280000Y-134245000D01*
X125280000Y-131595000D02*
X125280000Y-134245000D01*
%TO.C,R1*%
X50020000Y-86500000D02*
X51130000Y-86500000D01*
X62380000Y-86500000D02*
X61270000Y-86500000D01*
X61270000Y-88420000D02*
X51130000Y-88420000D01*
X51130000Y-84580000D01*
X61270000Y-84580000D01*
X61270000Y-88420000D01*
%TO.C,J3*%
X46340000Y-138480000D02*
X57340000Y-138480000D01*
X46340000Y-140100000D02*
X57340000Y-140100000D01*
X46340000Y-147850000D02*
X57340000Y-147850000D01*
X46340000Y-148970000D02*
X46340000Y-138480000D01*
X48700000Y-148970000D02*
X46340000Y-148970000D01*
X57340000Y-138480000D02*
X57340000Y-148970000D01*
X57340000Y-148970000D02*
X49300000Y-148970000D01*
X49440000Y-149580000D02*
X48560000Y-149580000D01*
X49000000Y-148970000D01*
X49440000Y-149580000D01*
G36*
X49440000Y-149580000D02*
G01*
X48560000Y-149580000D01*
X49000000Y-148970000D01*
X49440000Y-149580000D01*
G37*
%TO.C,R8*%
X85036431Y-119788634D02*
X85036431Y-120898634D01*
X85036431Y-132148634D02*
X85036431Y-131038634D01*
X86956431Y-120898634D02*
X83116431Y-120898634D01*
X83116431Y-131038634D01*
X86956431Y-131038634D01*
X86956431Y-120898634D01*
%TO.C,R2*%
X65644211Y-114805360D02*
X65644211Y-115915360D01*
X65644211Y-127165360D02*
X65644211Y-126055360D01*
X67564211Y-115915360D02*
X63724211Y-115915360D01*
X63724211Y-126055360D01*
X67564211Y-126055360D01*
X67564211Y-115915360D01*
%TO.C,R6*%
X94486431Y-119788634D02*
X94486431Y-120898634D01*
X94486431Y-132148634D02*
X94486431Y-131038634D01*
X96406431Y-120898634D02*
X92566431Y-120898634D01*
X92566431Y-131038634D01*
X96406431Y-131038634D01*
X96406431Y-120898634D01*
%TO.C,R4*%
X75821184Y-114809845D02*
X75821184Y-115919845D01*
X75821184Y-127169845D02*
X75821184Y-126059845D01*
X77741184Y-115919845D02*
X73901184Y-115919845D01*
X73901184Y-126059845D01*
X77741184Y-126059845D01*
X77741184Y-115919845D01*
%TO.C,BZ1*%
X115400000Y-131200000D02*
G75*
G02*
X103200000Y-131200000I-6100000J0D01*
G01*
X103200000Y-131200000D02*
G75*
G02*
X115400000Y-131200000I6100000J0D01*
G01*
%TO.C,J10*%
X87300000Y-146120000D02*
X87300000Y-148880000D01*
X97570000Y-146120000D02*
X87300000Y-146120000D01*
X97570000Y-146120000D02*
X97570000Y-148880000D01*
X97570000Y-148880000D02*
X87300000Y-148880000D01*
X98840000Y-146120000D02*
X100220000Y-146120000D01*
X100220000Y-146120000D02*
X100220000Y-147500000D01*
%TO.C,K1*%
X46675000Y-115885000D02*
X46675000Y-115045000D01*
X46675000Y-125675000D02*
X46675000Y-116544995D01*
X46675000Y-133375000D02*
X46675000Y-127145000D01*
X46675000Y-135285000D02*
X46675000Y-134845000D01*
X46675000Y-135285000D02*
X47045000Y-135285000D01*
X47305000Y-115045000D02*
X46675000Y-115045000D01*
X47995000Y-119925000D02*
X47995000Y-118655000D01*
X49245000Y-118655000D02*
X54325000Y-118655000D01*
X49245000Y-119925000D02*
X47995000Y-119925000D01*
X49245000Y-121195000D02*
X49245000Y-118655000D01*
X51795000Y-115045000D02*
X48695000Y-115045000D01*
X53055000Y-118655000D02*
X51785000Y-121195000D01*
X54325000Y-118655000D02*
X54325000Y-119925000D01*
X54325000Y-119925000D02*
X54325000Y-121195000D01*
X54325000Y-121195000D02*
X49245000Y-121195000D01*
X55595000Y-118655000D02*
X55595000Y-119925000D01*
X55595000Y-119925000D02*
X54325000Y-119925000D01*
X56915000Y-135285000D02*
X48955000Y-135285000D01*
X56915000Y-135285000D02*
X56915000Y-117324998D01*
%TO.C,J2*%
X120280000Y-137940000D02*
X130770000Y-137940000D01*
X120280000Y-148940000D02*
X120280000Y-137940000D01*
X121900000Y-148940000D02*
X121900000Y-137940000D01*
X129650000Y-148940000D02*
X129650000Y-137940000D01*
X130770000Y-137940000D02*
X130770000Y-145980000D01*
X130770000Y-146580000D02*
X130770000Y-148940000D01*
X130770000Y-148940000D02*
X120280000Y-148940000D01*
X131380000Y-146720000D02*
X130770000Y-146280000D01*
X131380000Y-145840000D01*
X131380000Y-146720000D01*
G36*
X131380000Y-146720000D02*
G01*
X130770000Y-146280000D01*
X131380000Y-145840000D01*
X131380000Y-146720000D01*
G37*
%TO.C,R3*%
X70700000Y-114820000D02*
X70700000Y-115930000D01*
X70700000Y-127180000D02*
X70700000Y-126070000D01*
X72620000Y-115930000D02*
X68780000Y-115930000D01*
X68780000Y-126070000D01*
X72620000Y-126070000D01*
X72620000Y-115930000D01*
%TO.C,A1*%
X81460000Y-98040000D02*
X91880000Y-98040000D01*
X81460000Y-105920000D02*
X81460000Y-98040000D01*
X84000000Y-92960000D02*
X84000000Y-98040000D01*
X84000000Y-111000000D02*
X84000000Y-105920000D01*
X84000000Y-111000000D02*
X127440000Y-111000000D01*
X86670000Y-95630000D02*
X86670000Y-92960000D01*
X86670000Y-108330000D02*
X86670000Y-111000000D01*
X91880000Y-98040000D02*
X91880000Y-105920000D01*
X91880000Y-105920000D02*
X81460000Y-105920000D01*
X122230000Y-92960000D02*
X84000000Y-92960000D01*
X122230000Y-95630000D02*
X86670000Y-95630000D01*
X122230000Y-95630000D02*
X122230000Y-92960000D01*
X122230000Y-95630000D02*
X124770000Y-95630000D01*
X124770000Y-95630000D02*
X124770000Y-92960000D01*
X124770000Y-108330000D02*
X86670000Y-108330000D01*
X124770000Y-108330000D02*
X124770000Y-111000000D01*
X127440000Y-92960000D02*
X124770000Y-92960000D01*
X127440000Y-111000000D02*
X127440000Y-92960000D01*
%TO.C,J5*%
X103600000Y-138422500D02*
X114600000Y-138422500D01*
X103600000Y-140042500D02*
X114600000Y-140042500D01*
X103600000Y-147792500D02*
X114600000Y-147792500D01*
X103600000Y-148912500D02*
X103600000Y-138422500D01*
X105960000Y-148912500D02*
X103600000Y-148912500D01*
X114600000Y-138422500D02*
X114600000Y-148912500D01*
X114600000Y-148912500D02*
X106560000Y-148912500D01*
X106700000Y-149522500D02*
X105820000Y-149522500D01*
X106260000Y-148912500D01*
X106700000Y-149522500D01*
G36*
X106700000Y-149522500D02*
G01*
X105820000Y-149522500D01*
X106260000Y-148912500D01*
X106700000Y-149522500D01*
G37*
%TO.C,R5*%
X99136431Y-119768634D02*
X99136431Y-120878634D01*
X99136431Y-132128634D02*
X99136431Y-131018634D01*
X101056431Y-120878634D02*
X97216431Y-120878634D01*
X97216431Y-131018634D01*
X101056431Y-131018634D01*
X101056431Y-120878634D01*
%TO.C,J7*%
X86454526Y-114278151D02*
X86454526Y-112898151D01*
X87834526Y-114278151D02*
X86454526Y-114278151D01*
X89104526Y-111518151D02*
X124774526Y-111518151D01*
X89104526Y-114278151D02*
X89104526Y-111518151D01*
X89104526Y-114278151D02*
X124774526Y-114278151D01*
X124774526Y-114278151D02*
X124774526Y-111518151D01*
%TO.C,R7*%
X89736431Y-119788634D02*
X89736431Y-120898634D01*
X89736431Y-132148634D02*
X89736431Y-131038634D01*
X91656431Y-120898634D02*
X87816431Y-120898634D01*
X87816431Y-131038634D01*
X91656431Y-131038634D01*
X91656431Y-120898634D01*
%TO.C,J1*%
X70480000Y-138880000D02*
X85960000Y-138880000D01*
X70480000Y-141900000D02*
X85960000Y-141900000D01*
X70480000Y-146800000D02*
X85960000Y-146800000D01*
X70480000Y-148300000D02*
X85960000Y-148300000D01*
X70480000Y-148920000D02*
X70480000Y-138880000D01*
X72840000Y-148920000D02*
X70480000Y-148920000D01*
X85960000Y-138880000D02*
X85960000Y-148920000D01*
X85960000Y-148920000D02*
X73440000Y-148920000D01*
X73580000Y-149530000D02*
X72700000Y-149530000D01*
X73140000Y-148920000D01*
X73580000Y-149530000D01*
G36*
X73580000Y-149530000D02*
G01*
X72700000Y-149530000D01*
X73140000Y-148920000D01*
X73580000Y-149530000D01*
G37*
%TO.C,D2*%
X48664000Y-97560000D02*
X48820000Y-97560000D01*
X50980000Y-97560000D02*
X51136000Y-97560000D01*
X48664484Y-97560000D02*
G75*
G02*
X48820000Y-94328563I1235516J1560000D01*
G01*
X48820000Y-97040961D02*
G75*
G02*
X48820000Y-94959039I1080000J1040961D01*
G01*
X50980000Y-94328563D02*
G75*
G02*
X51135516Y-97560000I-1080000J-1671437D01*
G01*
X50980000Y-94959039D02*
G75*
G02*
X50980000Y-97040961I-1080000J-1040961D01*
G01*
%TO.C,D4*%
X48160000Y-112000000D02*
X49380000Y-112000000D01*
X50160000Y-110530000D02*
X50160000Y-113470000D01*
X50280000Y-110530000D02*
X50280000Y-113470000D01*
X50400000Y-110530000D02*
X50400000Y-113470000D01*
X56040000Y-112000000D02*
X54820000Y-112000000D01*
X49380000Y-110530000D02*
X54820000Y-110530000D01*
X54820000Y-113470000D01*
X49380000Y-113470000D01*
X49380000Y-110530000D01*
%TO.C,J8*%
X87268460Y-139817884D02*
X87268460Y-145117884D01*
X97538460Y-139817884D02*
X87268460Y-139817884D01*
X97538460Y-139817884D02*
X97538460Y-142467884D01*
X97538460Y-142467884D02*
X100188460Y-142467884D01*
X98808460Y-139817884D02*
X100188460Y-139817884D01*
X100188460Y-139817884D02*
X100188460Y-141197884D01*
X100188460Y-142467884D02*
X100188460Y-145117884D01*
X100188460Y-145117884D02*
X87268460Y-145117884D01*
%TO.C,Q2*%
X70774211Y-136835360D02*
X74374211Y-136835360D01*
X70735733Y-136823838D02*
G75*
G02*
X72574211Y-132385359I1838478J1838478D01*
G01*
X72574211Y-132385360D02*
G75*
G02*
X74412689Y-136823838I0J-2600000D01*
G01*
%TO.C,U1*%
X126397500Y-126670000D02*
X131017500Y-126670000D01*
X126397500Y-136890000D02*
X126397500Y-126670000D01*
X129637500Y-126670000D02*
X129637500Y-136890000D01*
X131017500Y-126670000D02*
X131017500Y-136890000D01*
X131017500Y-129930000D02*
X129637500Y-129930000D01*
X131017500Y-133630000D02*
X129637500Y-133630000D01*
X131017500Y-136890000D02*
X126397500Y-136890000D01*
%TO.C,J4*%
X58440000Y-138480000D02*
X69440000Y-138480000D01*
X58440000Y-140100000D02*
X69440000Y-140100000D01*
X58440000Y-147850000D02*
X69440000Y-147850000D01*
X58440000Y-148970000D02*
X58440000Y-138480000D01*
X60800000Y-148970000D02*
X58440000Y-148970000D01*
X69440000Y-138480000D02*
X69440000Y-148970000D01*
X69440000Y-148970000D02*
X61400000Y-148970000D01*
X61540000Y-149580000D02*
X60660000Y-149580000D01*
X61100000Y-148970000D01*
X61540000Y-149580000D01*
G36*
X61540000Y-149580000D02*
G01*
X60660000Y-149580000D01*
X61100000Y-148970000D01*
X61540000Y-149580000D01*
G37*
%TO.C,C5*%
X116230000Y-146670000D02*
X116230000Y-142130000D01*
X116286000Y-146670000D02*
X116230000Y-146670000D01*
X118314000Y-142130000D02*
X118370000Y-142130000D01*
X118370000Y-142130000D02*
X118370000Y-146670000D01*
%TO.C,RV1*%
X67210000Y-82885000D02*
X76960000Y-82885000D01*
X67210000Y-92635000D02*
X67210000Y-82885000D01*
X76960000Y-82885000D02*
X76960000Y-92635000D01*
X76960000Y-92635000D02*
X67210000Y-92635000D01*
%TO.C,C4*%
X114987677Y-123199000D02*
X114987677Y-122001000D01*
X115027677Y-123462000D02*
X115027677Y-121738000D01*
X115067677Y-123662000D02*
X115067677Y-121538000D01*
X115107677Y-123830000D02*
X115107677Y-121370000D01*
X115147677Y-123977000D02*
X115147677Y-121223000D01*
X115187677Y-124109000D02*
X115187677Y-121091000D01*
X115227677Y-124230000D02*
X115227677Y-120970000D01*
X115267677Y-124342000D02*
X115267677Y-120858000D01*
X115307677Y-124446000D02*
X115307677Y-120754000D01*
X115347677Y-124544000D02*
X115347677Y-120656000D01*
X115387677Y-124637000D02*
X115387677Y-120563000D01*
X115427677Y-124724000D02*
X115427677Y-120476000D01*
X115467677Y-124808000D02*
X115467677Y-120392000D01*
X115507677Y-124888000D02*
X115507677Y-120312000D01*
X115547677Y-124965000D02*
X115547677Y-120235000D01*
X115587677Y-125039000D02*
X115587677Y-120161000D01*
X115627677Y-125110000D02*
X115627677Y-120090000D01*
X115667677Y-125178000D02*
X115667677Y-120022000D01*
X115707677Y-125244000D02*
X115707677Y-119956000D01*
X115747677Y-125308000D02*
X115747677Y-119892000D01*
X115787677Y-125370000D02*
X115787677Y-119830000D01*
X115827677Y-125430000D02*
X115827677Y-119770000D01*
X115867677Y-125488000D02*
X115867677Y-119712000D01*
X115907677Y-125545000D02*
X115907677Y-119655000D01*
X115947677Y-125600000D02*
X115947677Y-119600000D01*
X115987677Y-125653000D02*
X115987677Y-119547000D01*
X116027677Y-125705000D02*
X116027677Y-119495000D01*
X116067677Y-125756000D02*
X116067677Y-119444000D01*
X116107677Y-125805000D02*
X116107677Y-119395000D01*
X116147677Y-125854000D02*
X116147677Y-119346000D01*
X116187677Y-125901000D02*
X116187677Y-119299000D01*
X116227677Y-125947000D02*
X116227677Y-119253000D01*
X116267677Y-125991000D02*
X116267677Y-119209000D01*
X116307677Y-126035000D02*
X116307677Y-119165000D01*
X116347677Y-121360000D02*
X116347677Y-119122000D01*
X116347677Y-126078000D02*
X116347677Y-123840000D01*
X116387677Y-121360000D02*
X116387677Y-119080000D01*
X116387677Y-126120000D02*
X116387677Y-123840000D01*
X116427677Y-121360000D02*
X116427677Y-119039000D01*
X116427677Y-126161000D02*
X116427677Y-123840000D01*
X116467677Y-121360000D02*
X116467677Y-118999000D01*
X116467677Y-126201000D02*
X116467677Y-123840000D01*
X116507677Y-121360000D02*
X116507677Y-118960000D01*
X116507677Y-126240000D02*
X116507677Y-123840000D01*
X116547677Y-121360000D02*
X116547677Y-118922000D01*
X116547677Y-126278000D02*
X116547677Y-123840000D01*
X116587677Y-121360000D02*
X116587677Y-118884000D01*
X116587677Y-126316000D02*
X116587677Y-123840000D01*
X116627677Y-121360000D02*
X116627677Y-118848000D01*
X116627677Y-126352000D02*
X116627677Y-123840000D01*
X116667677Y-121360000D02*
X116667677Y-118812000D01*
X116667677Y-126388000D02*
X116667677Y-123840000D01*
X116707677Y-121360000D02*
X116707677Y-118777000D01*
X116707677Y-126423000D02*
X116707677Y-123840000D01*
X116747677Y-121360000D02*
X116747677Y-118742000D01*
X116747677Y-126458000D02*
X116747677Y-123840000D01*
X116787677Y-121360000D02*
X116787677Y-118709000D01*
X116787677Y-126491000D02*
X116787677Y-123840000D01*
X116827677Y-121360000D02*
X116827677Y-118676000D01*
X116827677Y-126524000D02*
X116827677Y-123840000D01*
X116867677Y-121360000D02*
X116867677Y-118643000D01*
X116867677Y-126557000D02*
X116867677Y-123840000D01*
X116907677Y-121360000D02*
X116907677Y-118612000D01*
X116907677Y-126588000D02*
X116907677Y-123840000D01*
X116947677Y-121360000D02*
X116947677Y-118580000D01*
X116947677Y-126620000D02*
X116947677Y-123840000D01*
X116987677Y-121360000D02*
X116987677Y-118550000D01*
X116987677Y-126650000D02*
X116987677Y-123840000D01*
X117027677Y-121360000D02*
X117027677Y-118520000D01*
X117027677Y-126680000D02*
X117027677Y-123840000D01*
X117067677Y-121360000D02*
X117067677Y-118491000D01*
X117067677Y-126709000D02*
X117067677Y-123840000D01*
X117107677Y-121360000D02*
X117107677Y-118462000D01*
X117107677Y-126738000D02*
X117107677Y-123840000D01*
X117147677Y-121360000D02*
X117147677Y-118434000D01*
X117147677Y-126766000D02*
X117147677Y-123840000D01*
X117187677Y-121360000D02*
X117187677Y-118407000D01*
X117187677Y-126793000D02*
X117187677Y-123840000D01*
X117227677Y-121360000D02*
X117227677Y-118380000D01*
X117227677Y-126820000D02*
X117227677Y-123840000D01*
X117267677Y-121360000D02*
X117267677Y-118353000D01*
X117267677Y-126847000D02*
X117267677Y-123840000D01*
X117307677Y-121360000D02*
X117307677Y-118328000D01*
X117307677Y-126872000D02*
X117307677Y-123840000D01*
X117347677Y-121360000D02*
X117347677Y-118302000D01*
X117347677Y-126898000D02*
X117347677Y-123840000D01*
X117387677Y-121360000D02*
X117387677Y-118277000D01*
X117387677Y-126923000D02*
X117387677Y-123840000D01*
X117427677Y-121360000D02*
X117427677Y-118253000D01*
X117427677Y-126947000D02*
X117427677Y-123840000D01*
X117467677Y-121360000D02*
X117467677Y-118229000D01*
X117467677Y-126971000D02*
X117467677Y-123840000D01*
X117507677Y-121360000D02*
X117507677Y-118206000D01*
X117507677Y-126994000D02*
X117507677Y-123840000D01*
X117547677Y-121360000D02*
X117547677Y-118183000D01*
X117547677Y-127017000D02*
X117547677Y-123840000D01*
X117587677Y-121360000D02*
X117587677Y-118161000D01*
X117587677Y-127039000D02*
X117587677Y-123840000D01*
X117627677Y-121360000D02*
X117627677Y-118139000D01*
X117627677Y-127061000D02*
X117627677Y-123840000D01*
X117667677Y-121360000D02*
X117667677Y-118117000D01*
X117667677Y-127083000D02*
X117667677Y-123840000D01*
X117707677Y-121360000D02*
X117707677Y-118096000D01*
X117707677Y-127104000D02*
X117707677Y-123840000D01*
X117747677Y-121360000D02*
X117747677Y-118076000D01*
X117747677Y-127124000D02*
X117747677Y-123840000D01*
X117787677Y-121360000D02*
X117787677Y-118056000D01*
X117787677Y-127144000D02*
X117787677Y-123840000D01*
X117827677Y-121360000D02*
X117827677Y-118036000D01*
X117827677Y-127164000D02*
X117827677Y-123840000D01*
X117867677Y-121360000D02*
X117867677Y-118017000D01*
X117867677Y-127183000D02*
X117867677Y-123840000D01*
X117907677Y-121360000D02*
X117907677Y-117998000D01*
X117907677Y-127202000D02*
X117907677Y-123840000D01*
X117947677Y-121360000D02*
X117947677Y-117980000D01*
X117947677Y-127220000D02*
X117947677Y-123840000D01*
X117987677Y-121360000D02*
X117987677Y-117962000D01*
X117987677Y-127238000D02*
X117987677Y-123840000D01*
X118027677Y-121360000D02*
X118027677Y-117944000D01*
X118027677Y-127256000D02*
X118027677Y-123840000D01*
X118067677Y-121360000D02*
X118067677Y-117927000D01*
X118067677Y-127273000D02*
X118067677Y-123840000D01*
X118107677Y-121360000D02*
X118107677Y-117910000D01*
X118107677Y-127290000D02*
X118107677Y-123840000D01*
X118147677Y-121360000D02*
X118147677Y-117894000D01*
X118147677Y-127306000D02*
X118147677Y-123840000D01*
X118187677Y-121360000D02*
X118187677Y-117878000D01*
X118187677Y-127322000D02*
X118187677Y-123840000D01*
X118227677Y-121360000D02*
X118227677Y-117862000D01*
X118227677Y-127338000D02*
X118227677Y-123840000D01*
X118267677Y-121360000D02*
X118267677Y-117847000D01*
X118267677Y-127353000D02*
X118267677Y-123840000D01*
X118307677Y-121360000D02*
X118307677Y-117832000D01*
X118307677Y-127368000D02*
X118307677Y-123840000D01*
X118347677Y-121360000D02*
X118347677Y-117818000D01*
X118347677Y-127382000D02*
X118347677Y-123840000D01*
X118387677Y-121360000D02*
X118387677Y-117803000D01*
X118387677Y-127397000D02*
X118387677Y-123840000D01*
X118427677Y-121360000D02*
X118427677Y-117790000D01*
X118427677Y-127410000D02*
X118427677Y-123840000D01*
X118467677Y-121360000D02*
X118467677Y-117776000D01*
X118467677Y-127424000D02*
X118467677Y-123840000D01*
X118507677Y-121360000D02*
X118507677Y-117763000D01*
X118507677Y-127437000D02*
X118507677Y-123840000D01*
X118547677Y-121360000D02*
X118547677Y-117751000D01*
X118547677Y-127449000D02*
X118547677Y-123840000D01*
X118587677Y-121360000D02*
X118587677Y-117739000D01*
X118587677Y-127461000D02*
X118587677Y-123840000D01*
X118627677Y-121360000D02*
X118627677Y-117727000D01*
X118627677Y-127473000D02*
X118627677Y-123840000D01*
X118667677Y-121360000D02*
X118667677Y-117715000D01*
X118667677Y-127485000D02*
X118667677Y-123840000D01*
X118707677Y-121360000D02*
X118707677Y-117704000D01*
X118707677Y-127496000D02*
X118707677Y-123840000D01*
X118747677Y-121360000D02*
X118747677Y-117693000D01*
X118747677Y-127507000D02*
X118747677Y-123840000D01*
X118787677Y-121360000D02*
X118787677Y-117683000D01*
X118787677Y-127517000D02*
X118787677Y-123840000D01*
X118827677Y-127528000D02*
X118827677Y-117672000D01*
X118867677Y-127537000D02*
X118867677Y-117663000D01*
X118907677Y-127547000D02*
X118907677Y-117653000D01*
X118947677Y-127556000D02*
X118947677Y-117644000D01*
X118987677Y-127565000D02*
X118987677Y-117635000D01*
X119027677Y-127573000D02*
X119027677Y-117627000D01*
X119067677Y-127581000D02*
X119067677Y-117619000D01*
X119107677Y-127589000D02*
X119107677Y-117611000D01*
X119147677Y-127597000D02*
X119147677Y-117603000D01*
X119187677Y-127604000D02*
X119187677Y-117596000D01*
X119227677Y-127611000D02*
X119227677Y-117589000D01*
X119267677Y-127617000D02*
X119267677Y-117583000D01*
X119307677Y-127623000D02*
X119307677Y-117577000D01*
X119347677Y-127629000D02*
X119347677Y-117571000D01*
X119387677Y-127635000D02*
X119387677Y-117565000D01*
X119427677Y-127640000D02*
X119427677Y-117560000D01*
X119467677Y-127645000D02*
X119467677Y-117555000D01*
X119507677Y-127649000D02*
X119507677Y-117551000D01*
X119547677Y-127654000D02*
X119547677Y-117546000D01*
X119587677Y-127657000D02*
X119587677Y-117543000D01*
X119627677Y-127661000D02*
X119627677Y-117539000D01*
X119667677Y-127664000D02*
X119667677Y-117536000D01*
X119707677Y-127667000D02*
X119707677Y-117533000D01*
X119747677Y-127670000D02*
X119747677Y-117530000D01*
X119787677Y-127672000D02*
X119787677Y-117528000D01*
X119827677Y-127674000D02*
X119827677Y-117526000D01*
X119867677Y-127676000D02*
X119867677Y-117524000D01*
X119907677Y-127677000D02*
X119907677Y-117523000D01*
X119947677Y-127679000D02*
X119947677Y-117521000D01*
X119987677Y-127679000D02*
X119987677Y-117521000D01*
X120027677Y-127680000D02*
X120027677Y-117520000D01*
X120067677Y-127680000D02*
X120067677Y-117520000D01*
X125047323Y-125975000D02*
X125047323Y-124975000D01*
X125547323Y-125475000D02*
X124547323Y-125475000D01*
X125187677Y-122600000D02*
G75*
G02*
X114947677Y-122600000I-5120000J0D01*
G01*
X114947677Y-122600000D02*
G75*
G02*
X125187677Y-122600000I5120000J0D01*
G01*
%TO.C,Q4*%
X58390000Y-132290000D02*
X68610000Y-132290000D01*
X58390000Y-133670000D02*
X68610000Y-133670000D01*
X58390000Y-136910000D02*
X58390000Y-132290000D01*
X61650000Y-132290000D02*
X61650000Y-133670000D01*
X65350000Y-132290000D02*
X65350000Y-133670000D01*
X68610000Y-132290000D02*
X68610000Y-136910000D01*
X68610000Y-136910000D02*
X58390000Y-136910000D01*
%TO.C,Q1*%
X76274211Y-136835360D02*
X79874211Y-136835360D01*
X76235733Y-136823838D02*
G75*
G02*
X78074211Y-132385359I1838478J1838478D01*
G01*
X78074211Y-132385360D02*
G75*
G02*
X79912689Y-136823838I0J-2600000D01*
G01*
%TD*%
M02*
