%TF.GenerationSoftware,KiCad,Pcbnew,9.0.5*%
%TF.CreationDate,2025-11-29T23:17:54+05:30*%
%TF.ProjectId,from scrach,66726f6d-2073-4637-9261-63682e6b6963,rev?*%
%TF.SameCoordinates,Original*%
%TF.FileFunction,Soldermask,Top*%
%TF.FilePolarity,Negative*%
%FSLAX46Y46*%
G04 Gerber Fmt 4.6, Leading zero omitted, Abs format (unit mm)*
G04 Created by KiCad (PCBNEW 9.0.5) date 2025-11-29 23:17:54*
%MOMM*%
%LPD*%
G01*
G04 APERTURE LIST*
G04 Aperture macros list*
%AMRoundRect*
0 Rectangle with rounded corners*
0 $1 Rounding radius*
0 $2 $3 $4 $5 $6 $7 $8 $9 X,Y pos of 4 corners*
0 Add a 4 corners polygon primitive as box body*
4,1,4,$2,$3,$4,$5,$6,$7,$8,$9,$2,$3,0*
0 Add four circle primitives for the rounded corners*
1,1,$1+$1,$2,$3*
1,1,$1+$1,$4,$5*
1,1,$1+$1,$6,$7*
1,1,$1+$1,$8,$9*
0 Add four rect primitives between the rounded corners*
20,1,$1+$1,$2,$3,$4,$5,0*
20,1,$1+$1,$4,$5,$6,$7,0*
20,1,$1+$1,$6,$7,$8,$9,0*
20,1,$1+$1,$8,$9,$2,$3,0*%
G04 Aperture macros list end*
%ADD10R,1.700000X1.700000*%
%ADD11C,1.700000*%
%ADD12R,1.800000X1.800000*%
%ADD13C,1.800000*%
%ADD14C,2.400000*%
%ADD15RoundRect,0.250001X-0.949999X-0.949999X0.949999X-0.949999X0.949999X0.949999X-0.949999X0.949999X0*%
%ADD16R,2.000000X2.000000*%
%ADD17C,2.000000*%
%ADD18RoundRect,0.341000X-0.759000X0.759000X-0.759000X-0.759000X0.759000X-0.759000X0.759000X0.759000X0*%
%ADD19C,2.500000*%
%ADD20C,2.200000*%
%ADD21RoundRect,0.250001X0.949999X-0.949999X0.949999X0.949999X-0.949999X0.949999X-0.949999X-0.949999X0*%
%ADD22C,1.780000*%
%ADD23R,1.600000X1.600000*%
%ADD24O,1.600000X1.600000*%
%ADD25RoundRect,0.250000X-1.050000X-1.050000X1.050000X-1.050000X1.050000X1.050000X-1.050000X1.050000X0*%
%ADD26C,2.600000*%
%ADD27RoundRect,0.250000X-0.650000X-0.650000X0.650000X-0.650000X0.650000X0.650000X-0.650000X0.650000X0*%
%ADD28R,1.050000X1.500000*%
%ADD29O,1.050000X1.500000*%
%ADD30R,2.000000X1.905000*%
%ADD31O,2.000000X1.905000*%
%ADD32C,1.600000*%
%ADD33C,1.440000*%
%ADD34RoundRect,0.250000X0.750000X0.750000X-0.750000X0.750000X-0.750000X-0.750000X0.750000X-0.750000X0*%
%ADD35R,1.905000X2.000000*%
%ADD36O,1.905000X2.000000*%
%ADD37R,1.800000X2.600000*%
%ADD38O,1.800000X2.600000*%
G04 APERTURE END LIST*
D10*
%TO.C,J9*%
X123377688Y-90952848D03*
D11*
X120837688Y-90952848D03*
X118297688Y-90952848D03*
X115757688Y-90952848D03*
X113217688Y-90952848D03*
X110677688Y-90952848D03*
X108137688Y-90952848D03*
X105597688Y-90952848D03*
X103057688Y-90952848D03*
X100517688Y-90952848D03*
X97977688Y-90952848D03*
X95437688Y-90952848D03*
X92897688Y-90952848D03*
X90357688Y-90952848D03*
X87817688Y-90952848D03*
%TD*%
D12*
%TO.C,D1*%
X50000000Y-103870000D03*
D13*
X50000000Y-101330000D03*
%TD*%
D10*
%TO.C,J6*%
X123900000Y-130325000D03*
D11*
X123900000Y-132865000D03*
%TD*%
D14*
%TO.C,R1*%
X63820000Y-86500000D03*
X48580000Y-86500000D03*
%TD*%
D15*
%TO.C,J3*%
X49000000Y-143500000D03*
D14*
X54080000Y-143500000D03*
%TD*%
%TO.C,R8*%
X85036431Y-118348634D03*
X85036431Y-133588634D03*
%TD*%
%TO.C,R2*%
X65644211Y-113365360D03*
X65644211Y-128605360D03*
%TD*%
%TO.C,R6*%
X94486431Y-118348634D03*
X94486431Y-133588634D03*
%TD*%
%TO.C,R4*%
X75821184Y-113369845D03*
X75821184Y-128609845D03*
%TD*%
D16*
%TO.C,BZ1*%
X105500000Y-131200000D03*
D17*
X113100000Y-131200000D03*
%TD*%
D10*
%TO.C,J10*%
X98840000Y-147500000D03*
D11*
X96300000Y-147500000D03*
X93760000Y-147500000D03*
X91220000Y-147500000D03*
X88680000Y-147500000D03*
%TD*%
D18*
%TO.C,K1*%
X55595000Y-116215000D03*
D19*
X47995000Y-126415000D03*
X47995000Y-134115000D03*
D20*
X47995000Y-116215000D03*
%TD*%
D21*
%TO.C,J2*%
X125300000Y-146280000D03*
D14*
X125300000Y-141200000D03*
%TD*%
%TO.C,R3*%
X70700000Y-113380000D03*
X70700000Y-128620000D03*
%TD*%
D22*
%TO.C,A1*%
X126040000Y-94360000D03*
X85400000Y-94360000D03*
X126040000Y-109600000D03*
X85400000Y-109600000D03*
D23*
X123500000Y-94360000D03*
D24*
X120960000Y-94360000D03*
X118420000Y-94360000D03*
X115880000Y-94360000D03*
X113340000Y-94360000D03*
X110800000Y-94360000D03*
X108260000Y-94360000D03*
X105720000Y-94360000D03*
X103180000Y-94360000D03*
X100640000Y-94360000D03*
X98100000Y-94360000D03*
X95560000Y-94360000D03*
X93020000Y-94360000D03*
X90480000Y-94360000D03*
X87940000Y-94360000D03*
X87940000Y-109600000D03*
X90480000Y-109600000D03*
X93020000Y-109600000D03*
X95560000Y-109600000D03*
X98100000Y-109600000D03*
X100640000Y-109600000D03*
X103180000Y-109600000D03*
X105720000Y-109600000D03*
X108260000Y-109600000D03*
X110800000Y-109600000D03*
X113340000Y-109600000D03*
X115880000Y-109600000D03*
X118420000Y-109600000D03*
X120960000Y-109600000D03*
X123500000Y-109600000D03*
%TD*%
D15*
%TO.C,J5*%
X106260000Y-143442500D03*
D14*
X111340000Y-143442500D03*
%TD*%
%TO.C,R5*%
X99136431Y-118328634D03*
X99136431Y-133568634D03*
%TD*%
D10*
%TO.C,J7*%
X87834526Y-112898151D03*
D11*
X90374526Y-112898151D03*
X92914526Y-112898151D03*
X95454526Y-112898151D03*
X97994526Y-112898151D03*
X100534526Y-112898151D03*
X103074526Y-112898151D03*
X105614526Y-112898151D03*
X108154526Y-112898151D03*
X110694526Y-112898151D03*
X113234526Y-112898151D03*
X115774526Y-112898151D03*
X118314526Y-112898151D03*
X120854526Y-112898151D03*
X123394526Y-112898151D03*
%TD*%
D14*
%TO.C,R7*%
X89736431Y-118348634D03*
X89736431Y-133588634D03*
%TD*%
D25*
%TO.C,J1*%
X73140000Y-144200000D03*
D26*
X78220000Y-144200000D03*
X83300000Y-144200000D03*
%TD*%
D12*
%TO.C,D2*%
X49900000Y-97270000D03*
D13*
X49900000Y-94730000D03*
%TD*%
D27*
%TO.C,D4*%
X47020000Y-112000000D03*
D13*
X57180000Y-112000000D03*
%TD*%
D10*
%TO.C,J8*%
X98808460Y-141197884D03*
D11*
X98808460Y-143737884D03*
X96268460Y-141197884D03*
X96268460Y-143737884D03*
X93728460Y-141197884D03*
X93728460Y-143737884D03*
X91188460Y-141197884D03*
X91188460Y-143737884D03*
X88648460Y-141197884D03*
X88648460Y-143737884D03*
%TD*%
D28*
%TO.C,Q2*%
X71304211Y-134985360D03*
D29*
X72574211Y-134985360D03*
X73844211Y-134985360D03*
%TD*%
D30*
%TO.C,U1*%
X127757500Y-129240000D03*
D31*
X127757500Y-131780000D03*
X127757500Y-134320000D03*
%TD*%
D15*
%TO.C,J4*%
X61100000Y-143500000D03*
D14*
X66180000Y-143500000D03*
%TD*%
D32*
%TO.C,C5*%
X117300000Y-146900000D03*
X117300000Y-141900000D03*
%TD*%
D33*
%TO.C,RV1*%
X72100000Y-90300000D03*
X74640000Y-87760000D03*
X72100000Y-85220000D03*
%TD*%
D34*
%TO.C,C4*%
X122567677Y-122600000D03*
D17*
X117567677Y-122600000D03*
%TD*%
D35*
%TO.C,Q4*%
X60960000Y-135550000D03*
D36*
X63500000Y-135550000D03*
X66040000Y-135550000D03*
%TD*%
D28*
%TO.C,Q1*%
X76804211Y-134985360D03*
D29*
X78074211Y-134985360D03*
X79344211Y-134985360D03*
%TD*%
D37*
%TO.C,DS2*%
X122620000Y-85080000D03*
D38*
X120080000Y-85080000D03*
X117540000Y-85080000D03*
X115000000Y-85080000D03*
X112460000Y-85080000D03*
X109920000Y-85080000D03*
X107380000Y-85080000D03*
X104840000Y-85080000D03*
X102300000Y-85080000D03*
X99760000Y-85080000D03*
X97220000Y-85080000D03*
X94680000Y-85080000D03*
X92140000Y-85080000D03*
X89600000Y-85080000D03*
X87060000Y-85080000D03*
X84520000Y-85080000D03*
%TD*%
M02*
